<?xml version="1.0" encoding="UTF-8" standalone="no"?>
<!-- Created with Inkscape (http://www.inkscape.org/) -->

<svg
   xmlns:dc="http://purl.org/dc/elements/1.1/"
   xmlns:cc="http://creativecommons.org/ns#"
   xmlns:rdf="http://www.w3.org/1999/02/22-rdf-syntax-ns#"
   xmlns:svg="http://www.w3.org/2000/svg"
   xmlns="http://www.w3.org/2000/svg"
   xmlns:sodipodi="http://sodipodi.sourceforge.net/DTD/sodipodi-0.dtd"
   xmlns:inkscape="http://www.inkscape.org/namespaces/inkscape"
   id="svg2"
   version="1.1"
   inkscape:version="0.91 r13725"
   xml:space="preserve"
   width="765"
   height="859.96802"
   viewBox="0 0 765 859.96802"
   sodipodi:docname="mascot.svg"><metadata
     id="metadata8"><rdf:RDF><cc:Work
         rdf:about=""><dc:format>image/svg+xml</dc:format><dc:type
           rdf:resource="http://purl.org/dc/dcmitype/StillImage" /><dc:title></dc:title></cc:Work></rdf:RDF></metadata><defs
     id="defs6"><clipPath
       clipPathUnits="userSpaceOnUse"
       id="clipPath16"><path
         d="M 0,792 612,792 612,0 0,0 0,792 Z"
         id="path18"
         inkscape:connector-curvature="0" /></clipPath></defs><sodipodi:namedview
     pagecolor="#ffffff"
     bordercolor="#666666"
     borderopacity="1"
     objecttolerance="10"
     gridtolerance="10"
     guidetolerance="10"
     inkscape:pageopacity="0"
     inkscape:pageshadow="2"
     inkscape:window-width="1920"
     inkscape:window-height="1056"
     id="namedview4"
     showgrid="false"
     inkscape:zoom="0.47676768"
     inkscape:cx="220.3653"
     inkscape:cy="409.46064"
     inkscape:window-x="0"
     inkscape:window-y="24"
     inkscape:window-maximized="1"
     inkscape:current-layer="g10" /><g
     id="g10"
     inkscape:groupmode="layer"
     inkscape:label="Bloggify mascot_2"
     transform="matrix(1.25,0,0,-1.25,0,859.968)"><g
       id="g12"
       transform="matrix(1.3771609,0,0,1.3771609,-120.1975,-242.26584)"><g
         id="g14"
         clip-path="url(#clipPath16)"><g
           id="g20"
           transform="translate(350.713,555.3024)"><path
             d="M 0,0 C -76.841,0 -97.113,-31.271 -97.113,-31.271 L 0,-82.648 97.112,-31.271 C 97.112,-31.271 76.841,0 0,0"
             style="fill:#ecd6b1;fill-opacity:1;fill-rule:nonzero;stroke:none"
             id="path22"
             inkscape:connector-curvature="0" /></g><g
           id="g24"
           transform="translate(426.0747,584.4958)"><path
             d="M 0,0 -75.991,90.981 -151.982,0 c 0,0 -36.512,-5.944 -49.616,-11.631 l 21.759,-37.831 c 0,0 30.083,2.72 99.068,2.72 68.985,0 108.629,-2.72 108.629,-2.72 l 21.759,37.831 C 36.512,-5.944 0,0 0,0"
             style="fill:#bcbec0;fill-opacity:1;fill-rule:nonzero;stroke:none"
             id="path26"
             inkscape:connector-curvature="0" /></g><g
           id="g28"
           transform="translate(350.0839,675.4767)"><path
             d="m 0,0 -75.913,-90.888 c 17.248,2.93 46.085,7.02 73.988,7.301 1.067,0.011 1.925,0.873 1.925,1.941 L 0,0 Z"
             style="fill:#e6e7e8;fill-opacity:1;fill-rule:nonzero;stroke:none"
             id="path30"
             inkscape:connector-curvature="0" /></g><g
           id="g32"
           transform="translate(426.0747,584.4958)"><path
             d="M 0,0 -75.991,90.981 -151.982,0 c 0,0 -36.512,-5.944 -49.616,-11.631 l 21.759,-37.831 c 0,0 30.083,2.72 99.068,2.72 68.985,0 108.629,-2.72 108.629,-2.72 l 21.759,37.831 C 36.512,-5.944 0,0 0,0"
             style="fill:#bcbec0;fill-opacity:1;fill-rule:nonzero;stroke:none"
             id="path34"
             inkscape:connector-curvature="0" /></g><g
           id="g36"
           transform="translate(350.0839,675.4767)"><path
             d="m 0,0 -75.913,-90.888 c 17.248,2.93 46.085,7.02 73.988,7.301 1.067,0.011 1.925,0.873 1.925,1.941 L 0,0 Z"
             style="fill:#e6e7e8;fill-opacity:1;fill-rule:nonzero;stroke:none"
             id="path38"
             inkscape:connector-curvature="0" /></g><g
           id="g40"
           transform="translate(243.1838,565.6934)"><path
             d="m 0,0 c -0.899,0 -1.712,0.617 -1.924,1.529 -0.249,1.064 0.413,2.128 1.477,2.376 0.714,0.166 72.316,16.544 150.75,7.952 1.086,-0.119 1.87,-1.095 1.751,-2.182 C 151.936,8.59 150.968,7.811 149.873,7.924 72.102,16.444 1.158,0.217 0.451,0.052 0.3,0.017 0.149,0 0,0"
             style="fill:#94979a;fill-opacity:1;fill-rule:nonzero;stroke:none"
             id="path42"
             inkscape:connector-curvature="0" /></g><g
           id="g44"
           transform="translate(427.6427,556.2159)"><path
             d="m 0,0 c -0.11,0 -0.221,0.009 -0.333,0.029 -12.488,2.122 -26.23,3.787 -40.845,4.946 -1.09,0.087 -1.902,1.039 -1.816,2.128 0.086,1.089 1.035,1.906 2.129,1.816 C -26.133,7.75 -12.273,6.071 0.329,3.929 1.406,3.746 2.132,2.724 1.948,1.647 1.784,0.682 0.948,0 0,0"
             style="fill:#94979a;fill-opacity:1;fill-rule:nonzero;stroke:none"
             id="path46"
             inkscape:connector-curvature="0" /></g><g
           id="g48"
           transform="translate(325.9962,563.0006)"><path
             d="m 0,0 c -1.056,0 -1.933,0.835 -1.975,1.9 -0.043,1.091 0.806,2.011 1.898,2.055 13.847,0.548 27.591,0.712 40.849,0.49 1.092,-0.018 1.963,-0.919 1.945,-2.011 -0.019,-1.081 -0.9,-1.945 -1.977,-1.945 -0.012,0 -0.023,0 -0.034,0.001 C 27.519,0.71 13.852,0.547 0.08,0.001 0.053,0 0.027,0 0,0"
             style="fill:#94979a;fill-opacity:1;fill-rule:nonzero;stroke:none"
             id="path50"
             inkscape:connector-curvature="0" /></g><g
           id="g52"
           transform="translate(296.3744,561.1742)"><path
             d="m 0,0 c -1.007,0 -1.868,0.766 -1.966,1.79 -0.105,1.087 0.693,2.053 1.78,2.157 0.087,0.009 8.9,0.845 22.788,1.526 1.1,0.061 2.02,-0.788 2.073,-1.879 C 24.728,2.503 23.887,1.575 22.796,1.522 8.998,0.845 0.278,0.017 0.191,0.009 0.127,0.003 0.063,0 0,0"
             style="fill:#94979a;fill-opacity:1;fill-rule:nonzero;stroke:none"
             id="path54"
             inkscape:connector-curvature="0" /></g><g
           id="g56"
           transform="translate(258.4066,557.6223)"><path
             d="m 0,0 c -0.941,0 -1.775,0.674 -1.945,1.633 -0.191,1.076 0.526,2.102 1.602,2.293 0.028,0.005 2.919,0.517 7.935,1.283 C 8.672,5.373 9.681,4.633 9.846,3.553 10.011,2.473 9.269,1.464 8.189,1.299 3.226,0.54 0.376,0.036 0.348,0.031 0.231,0.01 0.115,0 0,0"
             style="fill:#94979a;fill-opacity:1;fill-rule:nonzero;stroke:none"
             id="path58"
             inkscape:connector-curvature="0" /></g><g
           id="g60"
           transform="translate(342.3261,591.777)"><path
             d="M 0,0 C 0,0 72.21,-4.139 83.749,-7.281 73.038,5.542 50.457,32.577 50.457,32.577 50.457,32.577 62.464,-1.445 0,0"
             style="fill:#94979a;fill-opacity:1;fill-rule:nonzero;stroke:none"
             id="path62"
             inkscape:connector-curvature="0" /></g><g
           id="g64"
           transform="translate(403.6576,599.9798)"><path
             d="m 0,0 c -0.161,0 -0.326,0.02 -0.491,0.062 -0.223,0.057 -22.65,5.708 -47.313,5.708 -1.092,0 -1.978,0.886 -1.978,1.978 0,1.092 0.886,1.978 1.978,1.978 25.178,0 48.065,-5.773 48.293,-5.831 C 1.547,3.625 2.186,2.547 1.915,1.489 1.687,0.595 0.883,0 0,0"
             style="fill:#94979a;fill-opacity:1;fill-rule:nonzero;stroke:none"
             id="path66"
             inkscape:connector-curvature="0" /></g><g
           id="g68"
           transform="translate(397.8895,610.3647)"><path
             d="m 0,0 c -0.122,0 -0.245,0.012 -0.369,0.035 -0.208,0.039 -20.857,3.928 -27.703,4.087 -1.091,0.026 -1.956,0.932 -1.93,2.024 0.025,1.076 0.905,1.932 1.976,1.932 0.015,0 0.031,0 0.047,-10e-4 C -20.811,7.91 -0.495,4.085 0.365,3.922 1.439,3.719 2.144,2.685 1.941,1.611 1.763,0.662 0.932,0 0,0"
             style="fill:#94979a;fill-opacity:1;fill-rule:nonzero;stroke:none"
             id="path70"
             inkscape:connector-curvature="0" /></g><g
           id="g72"
           transform="translate(468.2742,561.1843)"><path
             d="m 0,0 c -0.186,0 -0.375,0.027 -0.562,0.082 -0.19,0.056 -19.168,5.636 -36.906,7.571 -1.087,0.118 -1.871,1.095 -1.752,2.181 0.118,1.087 1.113,1.863 2.18,1.752 C -18.94,9.611 0.368,3.932 0.561,3.875 1.608,3.565 2.206,2.464 1.896,1.417 1.641,0.557 0.853,0 0,0"
             style="fill:#94979a;fill-opacity:1;fill-rule:nonzero;stroke:none"
             id="path74"
             inkscape:connector-curvature="0" /></g><g
           id="g76"
           transform="translate(343.1606,612.8379)"><path
             d="M 0,0 0,54.35 -54.526,-10.932 C -27.248,-3.73 0,0 0,0"
             style="fill:#bcbec0;fill-opacity:1;fill-rule:nonzero;stroke:none"
             id="path78"
             inkscape:connector-curvature="0" /></g><g
           id="g80"
           transform="translate(317.1779,635.8611)"><path
             d="m 0,0 -25.745,-30.605 -10e-4,-0.001 27.641,19.099 c 0,0 7.274,-4.593 13.703,-3.274 -3.689,1.65 -4.956,5.815 -5.376,8.962 6.324,0.093 11.423,5.24 11.423,11.586 0,5.092 -3.287,9.408 -7.852,10.966 L -0.068,0.137 C -0.043,0.093 -0.025,0.044 0,0"
             style="fill:#e6e7e8;fill-opacity:1;fill-rule:nonzero;stroke:none"
             id="path82"
             inkscape:connector-curvature="0" /></g><g
           id="g84"
           transform="translate(530.8476,202.4369)"><path
             d="m 0,0 c 0,-14.646 -83.195,-26.52 -185.82,-26.52 -102.626,0 -185.821,11.874 -185.821,26.52 0,14.646 83.195,26.52 185.821,26.52 C -83.195,26.52 0,14.646 0,0"
             style="fill:#e6e7e8;fill-opacity:1;fill-rule:nonzero;stroke:none"
             id="path86"
             inkscape:connector-curvature="0" /></g><g
           id="g88"
           transform="translate(461.073,470.0457)"><path
             d="M 0,0 C 0.02,0.161 0.038,0.315 0.055,0.464 0.038,0.314 0.02,0.162 0,0 m -0.101,-0.807 c 0.019,0.152 0.039,0.303 0.057,0.447 -0.019,-0.145 -0.038,-0.294 -0.057,-0.447 m -0.117,-0.869 c 0.021,0.148 0.042,0.298 0.06,0.44 -0.019,-0.142 -0.039,-0.291 -0.06,-0.44 m -0.078,-0.567 c 0.002,0.014 0.004,0.029 0.006,0.042 -0.002,-0.013 -0.004,-0.028 -0.006,-0.042 m -0.287,-1.901 c 0.018,0.114 0.035,0.223 0.052,0.334 -0.017,-0.111 -0.034,-0.22 -0.052,-0.334 M -0.764,-5.25 c 0.02,0.12 0.039,0.238 0.059,0.355 -0.02,-0.118 -0.039,-0.235 -0.059,-0.355 m -0.2,-1.153 c 0.02,0.118 0.042,0.236 0.062,0.351 -0.02,-0.116 -0.041,-0.233 -0.062,-0.351 m -0.19,-1.037 c 0.01,0.052 0.02,0.104 0.03,0.155 -0.01,-0.051 -0.02,-0.103 -0.03,-0.155 m -0.726,-3.573 c 0.023,0.101 0.044,0.201 0.065,0.301 -0.021,-0.1 -0.042,-0.2 -0.065,-0.301 m -0.315,-1.392 c 0.032,0.134 0.062,0.268 0.093,0.401 -0.03,-0.133 -0.061,-0.267 -0.093,-0.401 m -0.336,-1.404 c 0.034,0.14 0.069,0.279 0.103,0.418 -0.034,-0.139 -0.069,-0.278 -0.103,-0.418 M 0.084,0.714 C 0.11,0.938 0.134,1.151 0.154,1.342 0.133,1.15 0.11,0.938 0.084,0.714 m -18.653,-44.207 c 8.545,6.408 13.313,18.825 15.918,29.198 12.553,46.062 -15.691,72.659 -15.691,72.659 l -92.647,-3.4 -92.647,3.4 c 0,0 -34.318,-32.28 -10.533,-87.324 0.679,-2.379 -55.385,-50.288 -150.863,41.453 -5.777,4.417 -18.348,-45.531 4.077,-73.732 -12.232,-20.048 -3.043,-32.37 5.097,-39.415 -10.194,-13.252 -1.02,-32.959 15.97,-37.206 -2.719,-9.174 -5.947,-29.731 21.915,-27.692 0,0 49.552,-27.976 91.685,-5.097 0,0 28.994,-77.923 115.299,-77.923 31.146,0 54.824,10.149 72.373,23.121 l 0,-1.131 c 0,-8.887 7.204,-16.091 16.091,-16.091 l 0.325,0 c 5.707,0 10.709,2.981 13.565,7.461 l 0.008,-0.002 c 0,0 44.877,9.598 44.877,74.383 0,64.785 -37.15,103.293 -54.819,117.338"
             style="fill:#ecd6b1;fill-opacity:1;fill-rule:nonzero;stroke:none"
             id="path90"
             inkscape:connector-curvature="0" /></g><g
           id="g92"
           transform="translate(425.1792,300.2576)"><path
             d="m 0,0 0.352,0 c 11.167,0 20.843,10.012 21.571,22.318 l 1.061,17.955 c 0.088,1.499 -1.055,2.786 -2.553,2.874 -1.519,0.113 -2.786,-1.054 -2.875,-2.552 L 16.495,22.639 C 15.944,13.314 8.552,5.436 0.352,5.436 L 0,5.436 c -3.398,0 -6.516,1.391 -8.779,3.917 -2.751,3.072 -4.033,7.518 -3.518,12.201 l 1.382,12.534 c 0.164,1.492 -0.912,2.835 -2.405,3 -1.486,0.159 -2.835,-0.913 -2.999,-2.405 L -17.7,22.148 C -18.385,15.931 -16.609,9.947 -12.829,5.726 -9.521,2.033 -4.965,0 0,0"
             style="fill:#d8b177;fill-opacity:1;fill-rule:nonzero;stroke:none"
             id="path94"
             inkscape:connector-curvature="0" /></g><g
           id="g96"
           transform="translate(387.7314,310.3804)"><path
             d="M 0,0 0.772,7.008 C 0.921,8.363 2.063,9.386 3.429,9.386 3.523,9.386 3.619,9.38 3.719,9.37 5.182,9.208 6.241,7.886 6.08,6.423 L 5.309,-0.584 c -0.253,-2.293 0.359,-4.454 1.679,-5.928 1.044,-1.165 2.483,-1.807 4.051,-1.807 l 0.197,0 c 3.997,0 7.604,3.909 7.878,8.535 l 0.593,10.039 c 0.083,1.41 1.244,2.514 2.642,2.514 l 0.181,-0.006 c 0.712,-0.042 1.365,-0.359 1.839,-0.893 0.473,-0.533 0.71,-1.219 0.668,-1.93 L 24.444,-0.099 c -0.441,-7.477 -6.367,-13.56 -13.208,-13.56 l -0.197,0 c -3.106,0 -5.958,1.273 -8.028,3.585 C 0.679,-7.473 -0.418,-3.8 0,0"
             style="fill:#d8b177;fill-opacity:1;fill-rule:nonzero;stroke:none"
             id="path98"
             inkscape:connector-curvature="0" /></g><g
           id="g100"
           transform="translate(375.1668,287.4883)"><path
             d="M 0,0 0.772,7.008 C 0.921,8.363 2.063,9.386 3.429,9.386 3.523,9.386 3.619,9.38 3.719,9.37 5.182,9.208 6.241,7.886 6.08,6.423 L 5.309,-0.584 c -0.253,-2.293 0.359,-4.454 1.679,-5.928 1.044,-1.165 2.483,-1.807 4.051,-1.807 l 0.197,0 c 3.997,0 7.604,3.909 7.878,8.535 l 0.593,10.039 c 0.083,1.41 1.244,2.514 2.642,2.514 l 0.181,-0.006 c 0.712,-0.042 1.365,-0.359 1.839,-0.893 0.473,-0.533 0.71,-1.219 0.668,-1.93 L 24.444,-0.099 c -0.441,-7.477 -6.367,-13.56 -13.208,-13.56 l -0.197,0 c -3.106,0 -5.958,1.273 -8.028,3.585 C 0.679,-7.473 -0.418,-3.8 0,0"
             style="fill:#d8b177;fill-opacity:1;fill-rule:nonzero;stroke:none"
             id="path102"
             inkscape:connector-curvature="0" /></g><g
           id="g104"
           transform="translate(326.5023,288.4588)"><path
             d="M 0,0 -0.772,7.008 C -0.921,8.363 -2.063,9.386 -3.429,9.386 -3.523,9.386 -3.619,9.38 -3.719,9.37 -5.182,9.208 -6.241,7.886 -6.08,6.423 l 0.772,-7.007 c 0.252,-2.293 -0.36,-4.454 -1.68,-5.928 -1.044,-1.165 -2.483,-1.807 -4.051,-1.807 l -0.197,0 c -3.997,0 -7.604,3.909 -7.878,8.535 l -0.593,10.039 c -0.083,1.41 -1.244,2.514 -2.642,2.514 l -0.181,-0.006 c -0.712,-0.042 -1.365,-0.359 -1.839,-0.893 -0.473,-0.533 -0.71,-1.219 -0.668,-1.93 l 0.593,-10.039 c 0.441,-7.477 6.367,-13.56 13.208,-13.56 l 0.197,0 c 3.106,0 5.958,1.273 8.028,3.585 C -0.679,-7.473 0.418,-3.8 0,0"
             style="fill:#d8b177;fill-opacity:1;fill-rule:nonzero;stroke:none"
             id="path106"
             inkscape:connector-curvature="0" /></g><g
           id="g108"
           transform="translate(402.7469,425.5046)"><path
             d="M 0,0 -53.346,10.456 -106.691,0 c 0,0 -28.202,-13.64 -39.755,-33.687 l 39.755,10.193 c 0,0 10.533,-91.198 53.345,-108.64 C -10.533,-114.692 0,-23.494 0,-23.494 L 39.754,-33.687 C 28.202,-13.64 0,0 0,0"
             style="fill:#d8b177;fill-opacity:1;fill-rule:nonzero;stroke:none"
             id="path110"
             inkscape:connector-curvature="0" /></g><g
           id="g112"
           transform="translate(234.7848,299.3967)"><path
             d="M 0,0 C 0,0 0.349,-0.937 1.083,-2.605 -7.551,28.17 0.396,59.502 4.757,75.82 c 16.201,23.939 11.528,51.335 7.288,65.581 -2.253,-4.537 -57.84,-47.57 -150.789,41.741 -5.776,4.417 -18.348,-45.531 4.077,-73.732 -12.232,-20.048 -3.043,-32.37 5.097,-39.415 -10.193,-13.252 -1.019,-32.959 15.97,-37.206 -2.718,-9.174 -5.946,-29.731 21.916,-27.692 0,0 49.551,-27.976 91.684,-5.097"
             style="fill:#d87804;fill-opacity:1;fill-rule:nonzero;stroke:none"
             id="path114"
             inkscape:connector-curvature="0" /></g><g
           id="g116"
           transform="translate(246.8298,440.7977)"><path
             d="m 0,0 c -0.664,-1.336 -5.957,-6.009 -15.462,-9.659 2.734,-13.928 5.323,-39.665 -9.495,-51.101 0,0 -6.561,-51.634 9.207,-82.506 1.24,0.583 2.476,1.198 3.705,1.865 0,0 0.349,-0.937 1.083,-2.605 -8.634,30.775 -0.687,62.107 3.674,78.425 C 8.913,-41.642 4.24,-14.246 0,0"
             style="fill:#ba6508;fill-opacity:1;fill-rule:nonzero;stroke:none"
             id="path118"
             inkscape:connector-curvature="0" /></g><g
           id="g120"
           transform="translate(438.5477,227.3729)"><path
             d="m 0,0 0.325,0 c 5.708,0 10.709,2.98 13.566,7.461 l 0.007,-0.003 c 0,0 2.484,0.532 6.281,2.187 0.985,2.881 1.995,5.995 3.032,9.373 2.209,55.724 -9.404,112.977 -9.404,112.977 l -24.008,0 c -3.252,0 -5.889,-2.637 -5.889,-5.889 l 0,-108.884 0,-1.132 3.331,-9.775 C -9.818,2.482 -5.204,0 0,0"
             style="fill:#e6e7e8;fill-opacity:1;fill-rule:nonzero;stroke:none"
             id="path122"
             inkscape:connector-curvature="0" /></g><g
           id="g124"
           transform="translate(438.8801,359.3681)"><path
             d="m 0,0 0,-131.995 c 5.705,0.003 10.703,2.982 13.558,7.461 l 0.008,-0.003 c 0,0 2.483,0.532 6.281,2.187 0.984,2.881 1.995,5.994 3.032,9.373 C 25.087,-57.253 13.475,0 13.475,0 L 0,0 Z"
             style="fill:#bcbec0;fill-opacity:1;fill-rule:nonzero;stroke:none"
             id="path126"
             inkscape:connector-curvature="0" /></g><g
           id="g128"
           transform="translate(444.3733,359.3681)"><path
             d="m 0,0 -5.493,0 0,-131.995 c 1.934,0.001 3.777,0.368 5.493,0.997 L 0,0 Z"
             style="fill:#858a8f;fill-opacity:1;fill-rule:nonzero;stroke:none"
             id="path130"
             inkscape:connector-curvature="0" /></g><g
           id="g132"
           transform="translate(490.0047,356.9428)"><path
             d="M 0,0 C -0.836,2.936 -1.922,5.918 -3.196,8.913 -15.534,40.237 -35.791,60.302 -47.5,69.61 c 0.572,0.429 1.124,0.889 1.663,1.369 -0.535,-0.453 -1.127,-0.917 -1.769,-1.38 -1.631,-0.158 -23.678,-2.429 -38.22,-10.758 12.194,-7.049 22.501,-17.416 28.704,-30.127 6.135,-12.573 9.934,-27.098 13.669,-40.549 8.533,-30.728 13.844,-63.614 9.007,-95.431 -0.76,-5.001 -1.786,-9.963 -3.113,-14.845 0,0 44.877,9.598 44.877,74.383 C 7.318,-29.819 4.47,-13.928 0,0"
             style="fill:#d87804;fill-opacity:1;fill-rule:nonzero;stroke:none"
             id="path134"
             inkscape:connector-curvature="0" /></g><g
           id="g136"
           transform="translate(452.4462,234.8313)"><path
             d="M 0,0 C 0,0 44.606,9.548 44.87,73.815 35.564,43.711 24.943,36.024 24.943,36.024 c 7.368,75.622 -31.278,138.195 -42.562,154.649 -8.104,-1.348 -21.019,-4.206 -30.648,-9.721 12.194,-7.049 22.501,-17.415 28.703,-30.127 6.136,-12.572 9.935,-27.098 13.67,-40.548 C 2.639,79.549 7.95,46.662 3.113,14.846 2.353,9.845 1.326,4.883 0,0"
             style="fill:#ba6508;fill-opacity:1;fill-rule:nonzero;stroke:none"
             id="path138"
             inkscape:connector-curvature="0" /></g><g
           id="g140"
           transform="translate(452.355,404.5029)"><path
             d="m 0,0 c -10.345,33.792 -48.528,55.872 -48.528,55.872 -13.719,-0.058 -23.223,3.187 -29.815,7.683 l -0.707,10.849 c 22.202,-4.945 37.605,14.392 37.605,14.392 l -26.658,27.814 c 0,0 -31.009,-2.468 -34.515,-23.786 -0.21,0.09 -0.336,0.147 -0.336,0.147 0,0 -0.126,-0.057 -0.335,-0.147 -3.507,21.318 -34.515,23.786 -34.515,23.786 l -26.658,-27.814 c 0,0 17.089,-21.468 41.216,-13.393 l -1.192,-9.446 c -6.595,-5.694 -16.879,-10.153 -32.941,-10.085 0,0 -38.184,-22.08 -48.528,-55.872 l 48.176,11.281 c 0,0 -12.808,-21.429 -13.793,-63.595 l 25.615,19.901 c 0,0 13.596,-50.837 42.955,-67.979 29.359,17.142 42.955,67.979 42.955,67.979 l 25.615,-19.901 c -0.985,42.166 -13.792,63.595 -13.792,63.595 L 0,0 Z"
             style="fill:#f7efe0;fill-opacity:1;fill-rule:nonzero;stroke:none"
             id="path142"
             inkscape:connector-curvature="0" /></g><g
           id="g144"
           transform="translate(335.2996,480.0645)"><path
             d="m 0,0 c 0.147,-0.016 -0.045,6.287 -0.073,6.63 -0.428,5.356 -1.624,10.664 -3.574,15.671 -2.669,6.853 -6.802,13.084 -12.135,18.155 -7.196,6.841 -16.27,11.348 -25.754,14.077 -6.376,1.835 -12.958,2.905 -19.564,3.461 -8.493,0.713 -16.814,0.475 -25.265,-0.223 -5.205,-0.431 -10.445,-0.597 -15.658,-0.19 -11.283,0.88 -23.708,4.916 -31.869,13.077 0,0 12.18,-26.882 41.419,-34.434 0,0 -27.595,0.769 -41.419,7.937 0,0 26.608,-52.231 75.138,-47.617 C -21.766,2.303 -0.006,0.001 0,0"
             style="fill:#d87804;fill-opacity:1;fill-rule:nonzero;stroke:none"
             id="path146"
             inkscape:connector-curvature="0" /></g><g
           id="g148"
           transform="translate(296.2599,527.0098)"><path
             d="m 0,0 c 0,0 -14.491,4.671 -40.36,1.796 -5.988,-0.479 -29.461,0.839 -34.252,6.228 0,0 12.283,-13.057 35.483,-17.726 -8.776,-2.873 -19.554,-7.783 -42.908,-1.196 0,0 18.683,-20.839 43.953,-17.845 17.605,10.898 27.425,20.36 27.425,20.36"
             style="fill:#ba6508;fill-opacity:1;fill-rule:nonzero;stroke:none"
             id="path150"
             inkscape:connector-curvature="0" /></g><g
           id="g152"
           transform="translate(366.1263,480.0645)"><path
             d="m 0,0 c -0.147,-0.016 0.045,6.287 0.073,6.63 0.428,5.356 1.624,10.664 3.574,15.671 2.669,6.853 6.802,13.084 12.135,18.155 7.196,6.841 16.27,11.348 25.754,14.077 6.376,1.835 12.958,2.905 19.564,3.461 8.493,0.713 16.814,0.475 25.265,-0.223 5.205,-0.431 10.445,-0.597 15.658,-0.19 11.283,0.88 23.708,4.916 31.869,13.077 0,0 -12.18,-26.882 -41.419,-34.434 0,0 27.595,0.769 41.419,7.937 0,0 -26.608,-52.231 -75.138,-47.617 C 21.766,2.303 0.006,0.001 0,0"
             style="fill:#d87804;fill-opacity:1;fill-rule:nonzero;stroke:none"
             id="path154"
             inkscape:connector-curvature="0" /></g><g
           id="g156"
           transform="translate(405.166,527.0098)"><path
             d="m 0,0 c 0,0 14.491,4.671 40.36,1.796 5.988,-0.479 29.461,0.839 34.252,6.228 0,0 -12.283,-13.057 -35.483,-17.726 8.776,-2.873 19.554,-7.783 42.908,-1.196 0,0 -18.683,-20.839 -43.953,-17.845 -17.605,10.898 -27.425,20.36 -27.425,20.36"
             style="fill:#ba6508;fill-opacity:1;fill-rule:nonzero;stroke:none"
             id="path158"
             inkscape:connector-curvature="0" /></g><g
           id="g160"
           transform="translate(350.6888,472.6546)"><path
             d="M 0,0 C -3.136,-10.675 -11.049,-19.287 -21.277,-23.381 L -0.296,-66.964 21.325,-22.05 C 7.077,-21.691 0,0 0,0"
             style="fill:#eab21f;fill-opacity:1;fill-rule:nonzero;stroke:none"
             id="path162"
             inkscape:connector-curvature="0" /></g><g
           id="g164"
           transform="translate(444.3733,241.8037)"><path
             d="m 0,0 c 0,-3.034 -2.459,-5.493 -5.493,-5.493 -3.034,0 -5.493,2.459 -5.493,5.493 0,3.034 2.459,5.493 5.493,5.493 C -2.459,5.493 0,3.034 0,0"
             style="fill:#666d73;fill-opacity:1;fill-rule:nonzero;stroke:none"
             id="path166"
             inkscape:connector-curvature="0" /></g><g
           id="g168"
           transform="translate(442.1911,241.8037)"><path
             d="m 0,0 c 0,-1.829 -1.482,-3.311 -3.311,-3.311 -1.829,0 -3.311,1.482 -3.311,3.311 0,1.829 1.482,3.311 3.311,3.311 C -1.482,3.311 0,1.829 0,0"
             style="fill:#4c5157;fill-opacity:1;fill-rule:nonzero;stroke:none"
             id="path170"
             inkscape:connector-curvature="0" /></g><g
           id="g172"
           transform="translate(431.8347,262.4738)"><path
             d="m 0,0 -0.067,0 c -1.827,0 -3.308,1.481 -3.308,3.308 l 0,20 c 0,1.827 1.481,3.308 3.308,3.308 l 0.067,0 c 1.827,0 3.308,-1.481 3.308,-3.308 l 0,-20 C 3.308,1.481 1.827,0 0,0"
             style="fill:#666d73;fill-opacity:1;fill-rule:nonzero;stroke:none"
             id="path174"
             inkscape:connector-curvature="0" /></g><g
           id="g176"
           transform="translate(428.4601,318.9836)"><path
             d="m 0,0 0,-7.615 c 0,-1.827 1.481,-3.307 3.308,-3.307 l 0.067,0 c 1.826,0 3.307,1.48 3.307,3.307 l 0,7.615 c 0,0.598 -0.485,1.083 -1.083,1.083 l -4.516,0 C 0.485,1.083 0,0.598 0,0"
             style="fill:#666d73;fill-opacity:1;fill-rule:nonzero;stroke:none"
             id="path178"
             inkscape:connector-curvature="0" /></g><g
           id="g180"
           transform="translate(435.1425,322.9903)"><path
             d="m 0,0 0,7.615 c 0,1.827 -1.481,3.307 -3.308,3.307 l -0.067,0 c -1.826,0 -3.307,-1.48 -3.307,-3.307 l 0,-7.615 c 0,-0.598 0.485,-1.083 1.083,-1.083 l 4.516,0 C -0.485,-1.083 0,-0.598 0,0"
             style="fill:#666d73;fill-opacity:1;fill-rule:nonzero;stroke:none"
             id="path182"
             inkscape:connector-curvature="0" /></g><g
           id="g184"
           transform="translate(162.4114,308.0612)"><path
             d="m 0,0 -14.271,82.737 c -35.009,-0.292 -36.452,60.264 -36.16,77.392 -5.184,4.357 -10.495,9.117 -15.94,14.349 -5.776,4.417 -18.348,-45.531 4.078,-73.733 -12.232,-20.047 -3.043,-32.37 5.097,-39.415 -10.194,-13.251 -1.02,-32.958 15.969,-37.206 -2.718,-9.174 -5.946,-29.73 21.916,-27.692 0,0 49.552,-27.975 91.684,-5.096 0,0 0.349,-0.938 1.084,-2.606 -0.514,1.833 -0.966,3.667 -1.367,5.5 C 38.014,-18.337 0,0 0,0"
             style="fill:#ba6508;fill-opacity:1;fill-rule:nonzero;stroke:none"
             id="path186"
             inkscape:connector-curvature="0" /></g><g
           id="g188"
           transform="translate(108.9835,649.3584)"><path
             d="m 0,0 0.009,0.002 -0.315,1.871 c -0.1,0.594 0.301,1.157 0.895,1.257 l 0.652,0.11 12.002,-71.298 c -2.784,-1.013 -4.542,-3.887 -4.033,-6.913 0.574,-3.41 3.805,-5.71 7.215,-5.136 3.411,0.574 5.711,3.805 5.137,7.215 -0.51,3.026 -3.112,5.167 -6.074,5.212 L 3.487,3.618 4.14,3.728 C 4.734,3.828 5.297,3.427 5.397,2.833 L 5.712,0.961 5.721,0.963 c 5.875,-25.771 44.502,-67.491 44.502,-67.491 l -6.698,-54.531 -19.65,-3.307 -19.65,-3.308 -24.18,49.334 c 0,0 22.84,52.066 19.955,78.34"
             style="fill:#f1c40f;fill-opacity:1;fill-rule:nonzero;stroke:none"
             id="path190"
             inkscape:connector-curvature="0" /></g><g
           id="g192"
           transform="translate(113.2087,521.6845)"><path
             d="m 0,0 -24.181,49.333 c 0,0 22.841,52.067 19.956,78.341 l 0.009,10e-4 -0.315,1.872 c -0.1,0.594 0.301,1.157 0.895,1.257 l 0.652,0.11 L 9.017,59.616 C 6.233,58.603 4.476,55.729 4.985,52.703 5.559,49.292 8.789,46.993 12.2,47.567 L 19.65,3.308 0,0 Z"
             style="fill:#f39c12;fill-opacity:1;fill-rule:nonzero;stroke:none"
             id="path194"
             inkscape:connector-curvature="0" /></g><g
           id="g196"
           transform="translate(153.9722,530.2751)"><path
             d="M 0,0 C 9.598,-55.603 55.823,-329.077 40.155,-349.78 23.45,-371.852 -38.507,-35.518 -43.764,-6.774 L 0,0 Z"
             style="fill:#3a566d;fill-opacity:1;fill-rule:nonzero;stroke:none"
             id="path198"
             inkscape:connector-curvature="0" /></g><g
           id="g200"
           transform="translate(153.9722,530.2751)"><path
             d="M 0,0 C 0.021,-0.119 0.044,-0.258 0.065,-0.379 -5.726,-10.59 -19.093,-45.774 0.232,-133.734 21.44,-230.267 39.28,-328.479 39.297,-350.568 21.437,-360.919 -38.593,-35.048 -43.764,-6.774 L 0,0 Z"
             style="fill:#2c3e50;fill-opacity:1;fill-rule:nonzero;stroke:none"
             id="path202"
             inkscape:connector-curvature="0" /></g><g
           id="g204"
           transform="translate(174.0203,377.1761)"><path
             d="M 0,0 C 0.467,1.879 0.403,3.136 0.267,3.861 L -0.124,5.954 -2.25,6.075 C -38.57,8.141 -60.582,21.666 -72.651,32.65 l -2.487,2.263 -1.692,-2.906 c -6.896,-11.843 -7.57,-22.63 -2.059,-32.131 0,0 0.039,-0.066 0.097,-0.163 0.021,-0.036 0.043,-0.072 0.065,-0.108 0.209,-0.346 0.619,-1.005 1.177,-1.827 0.049,-0.071 0.096,-0.142 0.146,-0.213 0.899,-1.311 2.14,-2.977 3.556,-4.476 0,0 0.098,-0.12 0.106,-0.109 0.432,-0.453 0.878,-0.886 1.335,-1.288 -0.041,0.036 -1.909,-3.942 -2.046,-4.334 -0.541,-1.543 -0.915,-3.144 -1.121,-4.766 -0.414,-3.262 -0.14,-6.596 0.731,-9.764 1.741,-6.335 6.331,-13.496 12.456,-16.366 0.582,-0.273 6.514,-2.23 6.543,-2.123 -1.702,-6.414 -2.742,-15.409 1.895,-21.985 3.207,-4.547 8.55,-7.158 15.882,-7.758 l 0.202,-0.017 0.202,0.015 c 5.801,0.39 10.488,2.358 13.932,5.852 7.871,7.983 7.364,21.742 6.781,27.286 l -0.137,1.304 c 4.136,2.845 7.067,6.273 8.76,10.262 2.944,6.937 1.29,13.678 0.043,17.079 l -0.293,0.8 C -3.652,-8.666 -0.916,-3.694 0,0"
             style="fill:#ba6508;fill-opacity:1;fill-rule:nonzero;stroke:none"
             id="path206"
             inkscape:connector-curvature="0" /></g><g
           id="g208"
           transform="translate(148.3536,309.5304)"><path
             d="m 0,0 c 7.099,7.2 6.533,20.148 6.014,25.094 -2.907,-1.651 -6.28,-3.073 -10.135,-4.248 -1.982,-0.604 -5.336,-1.039 -9.469,-1.039 -4.076,0 -8.916,0.448 -13.942,1.549 -2.332,-8.739 -3.99,-24.822 15.353,-26.405 C -7.091,-4.707 -2.997,-3.04 0,0 m -36.377,26.929 c 12.649,-5.24 26.739,-4.919 31.465,-3.483 10.343,3.154 16.988,8.053 19.75,14.559 2.626,6.189 1,12.335 -0.007,15.082 -1.316,-0.909 -2.754,-1.774 -4.359,-2.554 -5.981,-2.907 -12.2,-4.364 -18.701,-4.364 -11.015,0 -22.84,4.19 -35.688,12.601 -7.064,-10.482 -2.781,-24.446 7.54,-31.841 m -11.807,38.08 c -5.876,7.246 -9.548,17.962 -0.63,33.276 C -37.262,87.772 -14.645,73.163 23.262,71.006 23.345,70.563 23.375,69.694 23.029,68.3 21.904,63.766 17.63,57.034 9.284,52.978 -7.36,44.89 -26.152,48.836 -48.166,65.034 l -0.018,-0.025 z"
             style="fill:#d87804;fill-opacity:1;fill-rule:nonzero;stroke:none"
             id="path210"
             inkscape:connector-curvature="0" /></g><g
           id="g212"
           transform="translate(273.8717,300.2576)"><path
             d="m 0,0 -0.352,0 c -11.167,0 -20.843,10.012 -21.571,22.318 l -1.061,17.955 c -0.088,1.499 1.055,2.786 2.553,2.874 1.519,0.113 2.786,-1.054 2.875,-2.552 l 1.061,-17.956 C -15.944,13.314 -8.552,5.436 -0.352,5.436 l 0.352,0 c 3.398,0 6.516,1.391 8.779,3.917 2.751,3.072 4.033,7.518 3.518,12.201 l -1.382,12.534 c -0.164,1.492 0.912,2.835 2.405,3 1.486,0.159 2.835,-0.913 2.999,-2.405 L 17.7,22.148 C 18.385,15.931 16.609,9.947 12.829,5.726 9.521,2.033 4.965,0 0,0"
             style="fill:#d8b177;fill-opacity:1;fill-rule:nonzero;stroke:none"
             id="path214"
             inkscape:connector-curvature="0" /></g><g
           id="g216"
           transform="translate(311.3195,310.3804)"><path
             d="M 0,0 -0.772,7.008 C -0.921,8.363 -2.063,9.386 -3.429,9.386 -3.523,9.386 -3.619,9.38 -3.719,9.37 -5.182,9.208 -6.241,7.886 -6.08,6.423 l 0.771,-7.007 c 0.253,-2.293 -0.359,-4.454 -1.679,-5.928 -1.044,-1.165 -2.483,-1.807 -4.051,-1.807 l -0.197,0 c -3.997,0 -7.604,3.909 -7.878,8.535 l -0.593,10.039 c -0.083,1.41 -1.244,2.514 -2.642,2.514 l -0.181,-0.006 c -0.712,-0.042 -1.365,-0.359 -1.839,-0.893 -0.473,-0.533 -0.71,-1.219 -0.668,-1.93 l 0.593,-10.039 c 0.441,-7.477 6.367,-13.56 13.208,-13.56 l 0.197,0 c 3.106,0 5.958,1.273 8.028,3.585 C -0.679,-7.473 0.418,-3.8 0,0"
             style="fill:#d8b177;fill-opacity:1;fill-rule:nonzero;stroke:none"
             id="path218"
             inkscape:connector-curvature="0" /></g><g
           id="g220"
           transform="translate(302.9525,214.2731)"><path
             d="m 0,0 1.277,10.352 c 0.753,6.1 -2.884,11.506 -8.052,12.658 l -0.189,0.042 c -5.168,1.152 -10.757,-2.197 -12.666,-8.041 l -3.239,-9.914 c -1.621,-4.961 -0.899,-10.164 1.61,-13.744 0.244,-1.297 0.566,-2.546 0.953,-3.708 0.714,-2.142 1.642,-4 2.437,-5.334 0.376,-0.662 0.792,-1.209 1.023,-1.571 0.254,-0.366 0.424,-0.569 0.424,-0.569 0,0 0.24,0.111 0.625,0.336 0.364,0.228 0.972,0.547 1.594,0.987 1.286,0.87 2.915,2.159 4.471,3.795 0.844,0.886 1.666,1.881 2.438,2.952 C -3.503,-9.584 -0.639,-5.18 0,0"
             style="fill:#e8ae68;fill-opacity:1;fill-rule:nonzero;stroke:none"
             id="path222"
             inkscape:connector-curvature="0" /></g><g
           id="g224"
           transform="translate(304.23,224.6247)"><path
             d="M 0,0 C 0.753,6.101 -2.885,11.506 -8.053,12.658 L -8.242,12.7 c -0.024,0.005 -0.048,0.007 -0.072,0.012 l -9.521,-42.72 c 0.084,-0.111 0.136,-0.173 0.136,-0.173 0,0 0.24,0.112 0.625,0.336 0.363,0.229 0.971,0.547 1.594,0.987 1.286,0.87 2.915,2.159 4.471,3.795 0.844,0.887 1.666,1.882 2.437,2.952 3.792,2.176 6.655,6.58 7.295,11.759 L 0,0 Z"
             style="fill:#e09336;fill-opacity:1;fill-rule:nonzero;stroke:none"
             id="path226"
             inkscape:connector-curvature="0" /></g><g
           id="g228"
           transform="translate(338.5785,206.3329)"><path
             d="m 0,0 1.277,10.352 c 0.753,6.1 -2.884,11.506 -8.052,12.658 l -0.189,0.042 c -5.168,1.152 -10.757,-2.198 -12.666,-8.041 l -3.239,-9.914 c -1.621,-4.961 -0.899,-10.164 1.61,-13.744 0.244,-1.297 0.566,-2.547 0.953,-3.708 0.714,-2.142 1.642,-4 2.437,-5.334 0.376,-0.662 0.792,-1.209 1.023,-1.571 0.254,-0.366 0.424,-0.569 0.424,-0.569 0,0 0.24,0.111 0.625,0.336 0.364,0.228 0.972,0.547 1.594,0.987 1.286,0.87 2.915,2.159 4.471,3.795 0.844,0.886 1.666,1.881 2.438,2.952 C -3.503,-9.584 -0.639,-5.18 0,0"
             style="fill:#e8ae68;fill-opacity:1;fill-rule:nonzero;stroke:none"
             id="path230"
             inkscape:connector-curvature="0" /></g><g
           id="g232"
           transform="translate(318.9022,221.327)"><path
             d="M 0,0 C 1.89,5.849 7.468,9.216 12.64,8.081 L 12.829,8.039 C 12.853,8.034 12.876,8.025 12.9,8.02 L 3.515,-34.731 c -0.123,-0.064 -0.196,-0.099 -0.196,-0.099 0,0 -0.171,0.203 -0.425,0.568 -0.233,0.361 -0.65,0.906 -1.029,1.567 -0.799,1.331 -1.732,3.187 -2.453,5.327 -0.391,1.16 -0.717,2.409 -0.965,3.705 -2.52,3.571 -3.259,8.772 -1.655,13.738 L 0,0 Z"
             style="fill:#e09336;fill-opacity:1;fill-rule:nonzero;stroke:none"
             id="path234"
             inkscape:connector-curvature="0" /></g><g
           id="g236"
           transform="translate(322.2093,206.811)"><path
             d="m 0,0 1.466,11.878 c 0.864,7 -3.31,13.203 -9.24,14.524 l -0.217,0.049 c -5.93,1.321 -12.343,-2.521 -14.533,-9.226 L -26.241,5.849 c -1.86,-5.693 -1.031,-11.663 1.847,-15.771 0.28,-1.488 0.649,-2.922 1.094,-4.255 0.819,-2.457 1.883,-4.59 2.796,-6.121 0.432,-0.759 0.909,-1.387 1.174,-1.802 0.291,-0.42 0.486,-0.653 0.486,-0.653 0,0 0.276,0.128 0.718,0.385 0.417,0.263 1.115,0.628 1.829,1.133 1.476,0.998 3.345,2.477 5.13,4.354 0.969,1.018 1.912,2.159 2.797,3.388 4.351,2.496 7.637,7.55 8.37,13.493"
             style="fill:#e8ae68;fill-opacity:1;fill-rule:nonzero;stroke:none"
             id="path238"
             inkscape:connector-curvature="0" /></g><g
           id="g240"
           transform="translate(323.6751,218.6891)"><path
             d="m 0,0 c 0.864,7 -3.31,13.203 -9.24,14.524 l -0.217,0.049 c -0.027,0.006 -0.055,0.008 -0.083,0.014 l -10.925,-49.02 c 0.097,-0.127 0.156,-0.198 0.156,-0.198 0,0 0.276,0.128 0.717,0.385 0.417,0.263 1.115,0.628 1.829,1.133 1.476,0.998 3.345,2.477 5.13,4.354 0.969,1.018 1.912,2.159 2.798,3.388 4.35,2.496 7.636,7.55 8.369,13.493 L 0,0 Z"
             style="fill:#e09336;fill-opacity:1;fill-rule:nonzero;stroke:none"
             id="path242"
             inkscape:connector-curvature="0" /></g><g
           id="g244"
           transform="translate(281.6989,205.602)"><path
             d="m 0,0 c 0.243,-1.288 0.563,-2.53 0.948,-3.684 0.714,-2.141 1.641,-4 2.436,-5.334 0.377,-0.662 0.792,-1.209 1.024,-1.571 0.253,-0.366 0.424,-0.569 0.424,-0.569 0,0 0.24,0.112 0.625,0.336 0.086,0.054 0.189,0.115 0.3,0.18 C 6.61,-8.304 7.693,-5.24 9.04,-1.27 5.29,0.052 2.148,0.177 0,0"
             style="fill:#e09336;fill-opacity:1;fill-rule:nonzero;stroke:none"
             id="path246"
             inkscape:connector-curvature="0" /></g><g
           id="g248"
           transform="translate(331.3769,194.4969)"><path
             d="M 0,0 C -0.773,-1.059 -1.595,-2.043 -2.439,-2.919 -4.004,-4.546 -5.64,-5.826 -6.931,-6.689 -7.555,-7.125 -8.165,-7.441 -8.53,-7.668 -8.916,-7.889 -9.157,-8 -9.157,-8 c 0,0 -0.169,0.204 -0.42,0.572 -0.055,0.086 -0.122,0.185 -0.194,0.292 0.234,2.478 0.573,5.71 1.062,9.874 C -4.755,2.32 -1.864,1.083 0,0"
             style="fill:#e09336;fill-opacity:1;fill-rule:nonzero;stroke:none"
             id="path250"
             inkscape:connector-curvature="0" /></g><g
           id="g252"
           transform="translate(297.6138,197.7476)"><path
             d="m 0,0 c 0.299,-1.583 0.691,-3.108 1.165,-4.526 0.877,-2.631 2.016,-4.915 2.993,-6.554 0.463,-0.813 0.973,-1.485 1.258,-1.929 0.311,-0.45 0.52,-0.7 0.52,-0.7 0,0 0.296,0.137 0.768,0.412 0.107,0.067 0.232,0.142 0.369,0.222 1.048,2.873 2.379,6.638 4.034,11.515 C 6.5,0.064 2.639,0.217 0,0"
             style="fill:#e09336;fill-opacity:1;fill-rule:nonzero;stroke:none"
             id="path254"
             inkscape:connector-curvature="0" /></g><g
           id="g256"
           transform="translate(404.3236,216.5099)"><path
             d="m 0,0 -1.36,10.341 c -0.802,6.095 2.792,11.529 7.951,12.722 l 0.188,0.044 c 5.159,1.193 10.774,-2.111 12.73,-7.939 L 22.828,5.28 c 1.66,-4.948 0.979,-10.157 -1.5,-13.756 -0.234,-1.299 -0.546,-2.551 -0.924,-3.716 -0.697,-2.147 -1.609,-4.013 -2.394,-5.353 -0.371,-0.666 -0.782,-1.216 -1.011,-1.579 -0.25,-0.368 -0.419,-0.573 -0.419,-0.573 0,0 -0.241,0.11 -0.628,0.331 -0.365,0.226 -0.976,0.539 -1.601,0.974 -1.293,0.86 -2.933,2.136 -4.502,3.759 -0.851,0.88 -1.681,1.868 -2.461,2.933 C 3.579,-9.555 0.681,-5.174 0,0"
             style="fill:#e8ae68;fill-opacity:1;fill-rule:nonzero;stroke:none"
             id="path258"
             inkscape:connector-curvature="0" /></g><g
           id="g260"
           transform="translate(402.9632,226.851)"><path
             d="m 0,0 c -0.802,6.095 2.792,11.529 7.951,12.722 l 0.189,0.044 c 0.024,0.005 0.048,0.007 0.072,0.012 l 9.863,-42.642 c -0.083,-0.111 -0.134,-0.174 -0.134,-0.174 0,0 -0.242,0.11 -0.628,0.331 -0.365,0.225 -0.976,0.539 -1.602,0.974 -1.293,0.859 -2.932,2.136 -4.501,3.759 -0.851,0.88 -1.682,1.868 -2.462,2.933 -3.808,2.145 -6.707,6.526 -7.388,11.7 L 0,0 Z"
             style="fill:#e09336;fill-opacity:1;fill-rule:nonzero;stroke:none"
             id="path262"
             inkscape:connector-curvature="0" /></g><g
           id="g264"
           transform="translate(368.7623,208.2846)"><path
             d="m 0,0 -1.36,10.341 c -0.802,6.095 2.792,11.529 7.951,12.722 l 0.188,0.044 c 5.159,1.193 10.774,-2.111 12.73,-7.939 L 22.828,5.28 c 1.66,-4.948 0.979,-10.157 -1.5,-13.756 -0.234,-1.299 -0.546,-2.551 -0.924,-3.716 -0.697,-2.147 -1.609,-4.013 -2.394,-5.353 -0.371,-0.666 -0.782,-1.216 -1.011,-1.579 -0.25,-0.368 -0.419,-0.573 -0.419,-0.573 0,0 -0.241,0.11 -0.628,0.331 -0.365,0.226 -0.976,0.539 -1.601,0.974 -1.293,0.86 -2.933,2.136 -4.502,3.759 -0.851,0.88 -1.681,1.868 -2.461,2.933 C 3.579,-9.555 0.681,-5.174 0,0"
             style="fill:#e8ae68;fill-opacity:1;fill-rule:nonzero;stroke:none"
             id="path266"
             inkscape:connector-curvature="0" /></g><g
           id="g268"
           transform="translate(388.3179,223.4358)"><path
             d="m 0,0 c -1.937,5.834 -7.542,9.156 -12.704,7.979 l -0.189,-0.043 c -0.024,-0.005 -0.047,-0.014 -0.07,-0.02 l 9.726,-42.674 c 0.123,-0.063 0.197,-0.098 0.197,-0.098 0,0 0.169,0.204 0.42,0.572 0.23,0.362 0.643,0.911 1.017,1.575 0.788,1.338 1.707,3.201 2.41,5.346 0.382,1.164 0.698,2.415 0.936,3.713 2.491,3.592 3.189,8.798 1.544,13.751 L 0,0 Z"
             style="fill:#e09336;fill-opacity:1;fill-rule:nonzero;stroke:none"
             id="path270"
             inkscape:connector-curvature="0" /></g><g
           id="g272"
           transform="translate(385.1272,208.8938)"><path
             d="m 0,0 -1.561,11.866 c -0.92,6.993 3.204,13.229 9.123,14.598 l 0.217,0.05 c 5.919,1.369 12.362,-2.422 14.607,-9.109 L 26.194,6.059 c 1.905,-5.678 1.124,-11.655 -1.722,-15.785 -0.267,-1.49 -0.625,-2.927 -1.059,-4.263 -0.8,-2.464 -1.847,-4.606 -2.747,-6.144 -0.426,-0.763 -0.897,-1.394 -1.16,-1.811 -0.287,-0.423 -0.481,-0.657 -0.481,-0.657 0,0 -0.277,0.126 -0.72,0.379 -0.419,0.259 -1.12,0.619 -1.838,1.118 -1.484,0.986 -3.365,2.451 -5.165,4.313 -0.977,1.01 -1.929,2.144 -2.825,3.366 C 4.107,-10.964 0.781,-5.937 0,0"
             style="fill:#e8ae68;fill-opacity:1;fill-rule:nonzero;stroke:none"
             id="path274"
             inkscape:connector-curvature="0" /></g><g
           id="g276"
           transform="translate(383.5662,220.7598)"><path
             d="m 0,0 c -0.92,6.993 3.204,13.229 9.123,14.598 l 0.217,0.05 c 0.027,0.006 0.055,0.009 0.083,0.015 L 20.74,-34.268 c -0.095,-0.127 -0.154,-0.199 -0.154,-0.199 0,0 -0.277,0.126 -0.72,0.379 -0.419,0.259 -1.12,0.619 -1.838,1.118 -1.484,0.986 -3.365,2.451 -5.165,4.313 -0.977,1.01 -1.93,2.144 -2.825,3.366 -4.37,2.461 -7.696,7.488 -8.477,13.425 L 0,0 Z"
             style="fill:#e09336;fill-opacity:1;fill-rule:nonzero;stroke:none"
             id="path278"
             inkscape:connector-curvature="0" /></g><g
           id="g280"
           transform="translate(425.6459,208.0093)"><path
             d="m 0,0 c -0.233,-1.29 -0.542,-2.534 -0.918,-3.691 -0.697,-2.148 -1.609,-4.014 -2.394,-5.354 -0.371,-0.665 -0.782,-1.215 -1.011,-1.579 -0.25,-0.368 -0.419,-0.572 -0.419,-0.572 0,0 -0.241,0.109 -0.628,0.33 -0.087,0.054 -0.19,0.114 -0.302,0.178 -0.871,2.331 -1.979,5.387 -3.358,9.346 C -5.291,0.01 -2.149,0.16 0,0"
             style="fill:#e09336;fill-opacity:1;fill-rule:nonzero;stroke:none"
             id="path282"
             inkscape:connector-curvature="0" /></g><g
           id="g284"
           transform="translate(376.0586,196.5066)"><path
             d="m 0,0 c 0.782,-1.052 1.611,-2.03 2.462,-2.899 1.578,-1.615 3.224,-2.882 4.522,-3.734 0.628,-0.432 1.241,-0.742 1.607,-0.966 0.388,-0.219 0.63,-0.327 0.63,-0.327 0,0 0.167,0.205 0.416,0.575 0.054,0.087 0.119,0.186 0.191,0.293 C 9.574,-4.582 9.209,-1.352 8.687,2.808 4.736,2.358 1.855,1.097 0,0"
             style="fill:#e09336;fill-opacity:1;fill-rule:nonzero;stroke:none"
             id="path286"
             inkscape:connector-curvature="0" /></g><g
           id="g288"
           transform="translate(409.7945,200.0277)"><path
             d="m 0,0 c -0.286,-1.585 -0.666,-3.114 -1.128,-4.535 -0.856,-2.638 -1.977,-4.931 -2.941,-6.578 -0.456,-0.817 -0.961,-1.493 -1.242,-1.939 -0.308,-0.453 -0.515,-0.704 -0.515,-0.704 0,0 -0.297,0.135 -0.772,0.406 -0.107,0.066 -0.233,0.14 -0.37,0.219 -1.071,2.864 -2.432,6.618 -4.126,11.482 C -6.5,0.012 -2.641,0.196 0,0"
             style="fill:#e09336;fill-opacity:1;fill-rule:nonzero;stroke:none"
             id="path290"
             inkscape:connector-curvature="0" /></g><g
           id="g292"
           transform="translate(226.7999,340.5102)"><path
             d="m 0,0 c 0,0 -21.244,-19.856 -40.863,-15.959 1.915,-14.649 4.09,-32.129 4.09,-32.129 0,0 32.356,1.901 40.68,7.835 2.595,8.516 -5.096,36.006 -5.096,36.006"
             style="fill:#ba6508;fill-opacity:1;fill-rule:nonzero;stroke:none"
             id="path294"
             inkscape:connector-curvature="0" /></g><g
           id="g296"
           transform="translate(350.713,406.3564)"><path
             d="M 0,0 21.301,44.248 C 7.522,44.595 0.451,64.889 0,66.226 L 0,0 Z"
             style="fill:#d1950f;fill-opacity:1;fill-rule:nonzero;stroke:none"
             id="path298"
             inkscape:connector-curvature="0" /></g><g
           id="g300"
           transform="translate(420.5618,528.8177)"><path
             d="m 0,0 c -1.203,0.012 -47.303,0.204 -54.161,-40.861 -0.193,-1.723 -0.301,-3.471 -0.301,-5.245 0,-25.82 20.931,-46.751 46.751,-46.751 25.819,0 46.75,20.931 46.75,46.751 C 39.039,-22.915 22.149,-3.678 0,0"
             style="fill:#ecd6b1;fill-opacity:1;fill-rule:nonzero;stroke:none"
             id="path302"
             inkscape:connector-curvature="0" /></g><g
           id="g304"
           transform="translate(280.864,528.8177)"><path
             d="m 0,0 c 1.203,0.012 47.303,0.204 54.161,-40.861 0.193,-1.723 0.301,-3.471 0.301,-5.245 0,-25.82 -20.931,-46.751 -46.751,-46.751 -25.819,0 -46.75,20.931 -46.75,46.751 0,23.191 16.89,42.428 39.039,46.106"
             style="fill:#ecd6b1;fill-opacity:1;fill-rule:nonzero;stroke:none"
             id="path306"
             inkscape:connector-curvature="0" /></g><g
           id="g308"
           transform="translate(365.2401,483.3882)"><path
             d="m 0,0 c 0,-1.7 -0.156,-3.189 0.021,-4.842 2.509,-23.453 23.47,-42.586 47.589,-42.586 6.302,0 12.308,1.255 17.793,3.515 C 54.261,-32.28 34.361,-15.01 0.831,5.182 0.631,3.424 0,1.811 0,0"
             style="fill:#f7efe0;fill-opacity:1;fill-rule:nonzero;stroke:none"
             id="path310"
             inkscape:connector-curvature="0" /></g><g
           id="g312"
           transform="translate(373.4548,482.7112)"><path
             d="M 0,0 C 0,-22.508 18.247,-40.755 40.755,-40.755 63.263,-40.755 81.51,-22.508 81.51,0 81.51,22.508 63.263,40.755 40.755,40.755 18.247,40.755 0,22.508 0,0"
             style="fill:#ffffff;fill-opacity:1;fill-rule:nonzero;stroke:none"
             id="path314"
             inkscape:connector-curvature="0" /></g><g
           id="g316"
           transform="translate(429.2415,482.7112)"><path
             d="m 0,0 c 0,-9.052 -7.338,-16.391 -16.391,-16.391 -9.052,0 -16.391,7.339 -16.391,16.391 0,9.052 7.339,16.391 16.391,16.391 C -7.338,16.391 0,9.052 0,0"
             style="fill:#2c3e50;fill-opacity:1;fill-rule:nonzero;stroke:none"
             id="path318"
             inkscape:connector-curvature="0" /></g><g
           id="g320"
           transform="translate(405.7281,499.4186)"><path
             d="m 0,0 c 3.903,-0.405 6.739,-3.897 6.334,-7.8 -0.405,-3.904 -3.897,-6.74 -7.8,-6.335 -3.903,0.405 -6.739,3.897 -6.335,7.801 C -7.396,-2.431 -3.903,0.405 0,0"
             style="fill:#ffffff;fill-opacity:1;fill-rule:nonzero;stroke:none"
             id="path322"
             inkscape:connector-curvature="0" /></g><g
           id="g324"
           transform="translate(338.4795,486.3676)"><path
             d="m 0,0 c 0,-1.819 0.167,-3.412 -0.022,-5.18 -2.685,-25.091 -25.109,-45.56 -50.913,-45.56 -6.741,0 -13.167,1.342 -19.036,3.76 11.921,12.446 33.21,30.922 69.082,52.524 C -0.675,3.663 0,1.938 0,0"
             style="fill:#f7efe0;fill-opacity:1;fill-rule:nonzero;stroke:none"
             id="path326"
             inkscape:connector-curvature="0" /></g><g
           id="g328"
           transform="translate(327.9711,482.7112)"><path
             d="m 0,0 c 0,-22.508 -18.247,-40.755 -40.755,-40.755 -22.508,0 -40.755,18.247 -40.755,40.755 0,22.508 18.247,40.755 40.755,40.755 C -18.247,40.755 0,22.508 0,0"
             style="fill:#ffffff;fill-opacity:1;fill-rule:nonzero;stroke:none"
             id="path330"
             inkscape:connector-curvature="0" /></g><g
           id="g332"
           transform="translate(304.9662,482.7112)"><path
             d="m 0,0 c 0,-9.052 -7.338,-16.391 -16.391,-16.391 -9.052,0 -16.391,7.339 -16.391,16.391 0,9.052 7.339,16.391 16.391,16.391 C -7.338,16.391 0,9.052 0,0"
             style="fill:#2c3e50;fill-opacity:1;fill-rule:nonzero;stroke:none"
             id="path334"
             inkscape:connector-curvature="0" /></g><g
           id="g336"
           transform="translate(281.4528,499.4186)"><path
             d="m 0,0 c 3.903,-0.405 6.739,-3.897 6.334,-7.8 -0.405,-3.904 -3.897,-6.74 -7.8,-6.335 -3.903,0.405 -6.739,3.897 -6.335,7.801 C -7.396,-2.431 -3.903,0.405 0,0"
             style="fill:#ffffff;fill-opacity:1;fill-rule:nonzero;stroke:none"
             id="path338"
             inkscape:connector-curvature="0" /></g></g></g></g></svg>