<?xml version="1.0" encoding="UTF-8" standalone="no"?>
<!-- Created with Inkscape (http://www.inkscape.org/) -->

<svg
   xmlns:dc="http://purl.org/dc/elements/1.1/"
   xmlns:cc="http://creativecommons.org/ns#"
   xmlns:rdf="http://www.w3.org/1999/02/22-rdf-syntax-ns#"
   xmlns:svg="http://www.w3.org/2000/svg"
   xmlns="http://www.w3.org/2000/svg"
   xmlns:sodipodi="http://sodipodi.sourceforge.net/DTD/sodipodi-0.dtd"
   xmlns:inkscape="http://www.inkscape.org/namespaces/inkscape"
   id="svg2"
   version="1.1"
   inkscape:version="0.91 r13725"
   xml:space="preserve"
   width="460"
   height="460"
   viewBox="0 0 460 460"
   sodipodi:docname="circle.svg"
   inkscape:export-filename="/home/ionicabizau/Documents/Bloggify/logos/mark/black (copy)/circle.png"
   inkscape:export-xdpi="156.52"
   inkscape:export-ydpi="156.52"><metadata
     id="metadata8"><rdf:RDF><cc:Work
         rdf:about=""><dc:format>image/svg+xml</dc:format><dc:type
           rdf:resource="http://purl.org/dc/dcmitype/StillImage" /><dc:title /></cc:Work></rdf:RDF></metadata><defs
     id="defs6"><clipPath
       clipPathUnits="userSpaceOnUse"
       id="clipPath16"><path
         d="M 0,792 612,792 612,0 0,0 0,792 Z"
         id="path18"
         inkscape:connector-curvature="0" /></clipPath></defs><sodipodi:namedview
     pagecolor="#ffffff"
     bordercolor="#666666"
     borderopacity="1"
     objecttolerance="10"
     gridtolerance="10"
     guidetolerance="10"
     inkscape:pageopacity="0"
     inkscape:pageshadow="2"
     inkscape:window-width="1920"
     inkscape:window-height="1056"
     id="namedview4"
     showgrid="false"
     inkscape:zoom="1.3485026"
     inkscape:cx="113.58667"
     inkscape:cy="231.42241"
     inkscape:window-x="0"
     inkscape:window-y="24"
     inkscape:window-maximized="1"
     inkscape:current-layer="g10" /><g
     id="g10"
     inkscape:groupmode="layer"
     inkscape:label="Bloggify icon_only"
     transform="matrix(1.25,0,0,-1.25,0,460)"><rect
       style="opacity:1;fill:#ffffff;fill-rule:evenodd;stroke:none;stroke-width:0.74695039px;stroke-linecap:butt;stroke-linejoin:miter;stroke-opacity:1"
       id="rect3938"
       width="357.20685"
       height="357.20685"
       x="5.3965745"
       y="-362.60342"
       transform="scale(1,-1)"
       rx="178.60342"
       ry="178.60342"
       inkscape:export-xdpi="202"
       inkscape:export-ydpi="202" /><path
       style="fill:#000000;fill-opacity:1;fill-rule:nonzero;stroke:none"
       d="m 133.71879,235.78194 c -0.5815,0 -1.15675,-0.0261 -1.73384,-0.0443 l -83.952278,0 35.387572,-25.63379 -3.908834,0.01 -20.44577,0 21.064168,-20.32248 c -0.407277,-2.67879 -0.618398,-5.42201 -0.618398,-8.21451 0,-16.32699 7.22961,-30.95748 18.650281,-40.89539 l -0.0096,-0.008 0.294754,-0.23119 c 1.183187,-1.01551 2.413342,-1.97752 3.681512,-2.88972 l 31.58854,-24.79769 0,10.15835 49.40274,-34.522582 49.40659,34.524502 0,-10.16027 31.59239,24.79962 c 1.26505,0.9101 2.49139,1.86905 3.67188,2.88201 l 0.30053,0.23697 -0.004,0 -0.002,0 -0.006,0.008 c 11.42048,9.93793 18.65028,24.56788 18.65028,40.89539 0,2.26723 -0.18095,4.48406 -0.45272,6.67718 l 22.65929,21.86173 -20.44769,0 -3.90883,-0.0116 35.38757,25.63572 -86.57615,0 c -0.29077,0.004 -0.57423,0.0424 -0.86499,0.0424 -21.98677,0 -40.90264,-13.09686 -49.40659,-31.90834 -8.50364,18.81046 -27.41605,31.90834 -49.40081,31.90834 z m 98.80547,-35.08896 c 10.55888,0 19.11841,-8.55761 19.11841,-19.11649 0,-10.55889 -8.55952,-19.1165 -19.11841,-19.1165 -10.55701,0 -19.1165,8.55761 -19.1165,19.1165 0,10.55888 8.55951,19.11649 19.1165,19.11649 z m -98.80547,-0.27742 c 10.40494,0 18.83908,-8.43412 18.83908,-18.83907 0,-10.40496 -8.43413,-18.83908 -18.83908,-18.83908 -10.40496,0 -18.841,8.43412 -18.841,18.83908 0,10.40495 8.43604,18.83907 18.841,18.83907 z m 49.40081,-30.15138 c 2.86587,-9.08985 9.67567,-16.41365 18.45763,-19.92947 l -17.05323,-35.42225 0,23.41833 c 2.02209,0.68606 3.48887,2.57769 3.48887,4.83162 0,2.74995 -2.17373,4.97591 -4.89327,5.09747 -2.71955,-0.12163 -4.89327,-2.34752 -4.89327,-5.09747 0,-2.25393 1.46488,-4.14556 3.48886,-4.83162 l 0,-23.41833 -17.05323,35.42225 c 8.78196,3.51582 15.59176,10.83962 18.45764,19.92947 z"
       id="path82"
       inkscape:connector-curvature="0" /></g></svg>