<?xml version="1.0" encoding="UTF-8" standalone="no"?>
<!-- Created with Inkscape (http://www.inkscape.org/) -->

<svg
   xmlns:dc="http://purl.org/dc/elements/1.1/"
   xmlns:cc="http://creativecommons.org/ns#"
   xmlns:rdf="http://www.w3.org/1999/02/22-rdf-syntax-ns#"
   xmlns:svg="http://www.w3.org/2000/svg"
   xmlns="http://www.w3.org/2000/svg"
   xmlns:sodipodi="http://sodipodi.sourceforge.net/DTD/sodipodi-0.dtd"
   xmlns:inkscape="http://www.inkscape.org/namespaces/inkscape"
   id="svg2"
   version="1.1"
   inkscape:version="0.91 r13725"
   xml:space="preserve"
   width="400"
   height="400"
   viewBox="0 0 400 400"
   sodipodi:docname="circle.svg"
   inkscape:export-filename="/media/ionicabizau/1D94ADEF62034777/Bloggify/handover_8535102/final/logo/gray/circle.png"
   inkscape:export-xdpi="45"
   inkscape:export-ydpi="45"><metadata
     id="metadata8"><rdf:RDF><cc:Work
         rdf:about=""><dc:format>image/svg+xml</dc:format><dc:type
           rdf:resource="http://purl.org/dc/dcmitype/StillImage" /><dc:title /></cc:Work></rdf:RDF></metadata><defs
     id="defs6"><clipPath
       clipPathUnits="userSpaceOnUse"
       id="clipPath16"><path
         d="M 0,792 612,792 612,0 0,0 0,792 Z"
         id="path18"
         inkscape:connector-curvature="0" /></clipPath></defs><sodipodi:namedview
     pagecolor="#ffffff"
     bordercolor="#666666"
     borderopacity="1"
     objecttolerance="10"
     gridtolerance="10"
     guidetolerance="10"
     inkscape:pageopacity="0"
     inkscape:pageshadow="2"
     inkscape:window-width="1920"
     inkscape:window-height="1060"
     id="namedview4"
     showgrid="false"
     inkscape:zoom="1.3485026"
     inkscape:cx="103.57556"
     inkscape:cy="231.42241"
     inkscape:window-x="0"
     inkscape:window-y="0"
     inkscape:window-maximized="1"
     inkscape:current-layer="g10" /><g
     id="g10"
     inkscape:groupmode="layer"
     inkscape:label="Bloggify icon_only"
     transform="matrix(1.25,0,0,-1.25,0,400)"><path
       d="m 170.4919,139.31232 -20.98441,0 0,19.09775 20.98441,0 0,-19.09775 z"
       style="fill:#ffffff;fill-opacity:1;fill-rule:nonzero;stroke:none"
       id="path82"
       inkscape:connector-curvature="0" /><rect
       style="fill:#b7b7b7;fill-rule:evenodd;stroke:none;stroke-width:0.5959205px;stroke-linecap:butt;stroke-linejoin:miter;stroke-opacity:1;opacity:1;fill-opacity:1"
       id="rect3938"
       width="284.98129"
       height="284.98129"
       x="17.509348"
       y="-302.49063"
       transform="scale(1,-1)"
       rx="142.49065"
       ry="142.49065"
       inkscape:export-xdpi="202"
       inkscape:export-ydpi="202" /><path
       inkscape:connector-curvature="0"
       id="path86"
       style="fill:#ffffff;fill-opacity:1;fill-rule:nonzero;stroke:none"
       d="m 163.18127,158.03428 c 0,-24.27989 -19.68348,-43.96336 -43.96336,-43.96336 -24.281429,0 -43.964905,19.68347 -43.964905,43.96336 0,24.27988 19.683476,43.96336 43.964905,43.96336 24.27988,0 43.96336,-19.68348 43.96336,-43.96336" /><path
       inkscape:connector-curvature="0"
       id="path90"
       style="fill:#b7b7b7;fill-opacity:1;fill-rule:nonzero;stroke:none;opacity:1"
       d="m 134.49765,158.03428 c 0,-8.43908 -6.84067,-15.27974 -15.27974,-15.27974 -8.43908,0 -15.28129,6.84066 -15.28129,15.27974 0,8.43908 6.84221,15.27974 15.28129,15.27974 8.43907,0 15.27974,-6.84066 15.27974,-15.27974" /><path
       inkscape:connector-curvature="0"
       id="path94"
       style="fill:#ffffff;fill-opacity:1;fill-rule:nonzero;stroke:none"
       d="m 49.721671,201.96296 28.702115,-20.79173 -3.170627,0.009 0,0 -16.583753,0 26.51335,-25.57927 35.459544,46.36176 -70.920629,0 z" /><path
       inkscape:connector-curvature="0"
       id="path98"
       style="fill:#ffffff;fill-opacity:1;fill-rule:nonzero;stroke:none"
       d="m 159.29528,95.076132 22.0048,35.760118 -22.0048,24.74384 0,0.0216 -0.009,-0.0108 -0.009,0.0108 0,-0.0216 -22.0048,-24.74384 22.0048,-35.760118 0,-0.03083 0.009,0.01541 0.009,-0.01541 0,0.03083 z" /><path
       inkscape:connector-curvature="0"
       id="path102"
       style="fill:#ffffff;fill-opacity:1;fill-rule:nonzero;stroke:none"
       d="m 244.74654,181.18063 0,0 -3.17063,-0.009 28.70212,20.79173 -70.2193,0 c -0.23583,0.003 -0.4655,0.0354 -0.70133,0.0354 -24.28143,0 -43.9649,-19.68347 -43.9649,-43.9649 0,-24.27988 19.68347,-43.96336 43.9649,-43.96336 24.27988,0 43.96336,19.68348 43.96336,43.96336 0,1.83887 -0.14797,3.63767 -0.36839,5.41643 l 18.37946,17.73054 -16.58529,0 z" /><path
       inkscape:connector-curvature="0"
       id="path106"
       style="fill:#f39c12;fill-opacity:1;fill-rule:nonzero;stroke:none"
       d="m 183.85154,158.03428 c 0,-8.56393 6.94239,-15.50479 15.50478,-15.50479 8.56393,0 15.50633,6.94086 15.50633,15.50479 0,8.56393 -6.9424,15.50478 -15.50633,15.50478 -8.56239,0 -15.50478,-6.94085 -15.50478,-15.50478" /><path
       inkscape:connector-curvature="0"
       id="path110"
       style="fill:#b7b7b7;fill-opacity:1;fill-rule:nonzero;stroke:none;opacity:1"
       d="m 183.85154,158.03428 c 0,-8.56393 6.94239,-15.50479 15.50478,-15.50479 8.56393,0 15.50633,6.94086 15.50633,15.50479 0,8.56393 -6.9424,15.50478 -15.50633,15.50478 -8.56239,0 -15.50478,-6.94085 -15.50478,-15.50478"
       inkscape:export-xdpi="202"
       inkscape:export-ydpi="202" /><path
       inkscape:connector-curvature="0"
       id="path114"
       style="fill:#b7b7b7;fill-opacity:1;fill-rule:nonzero;stroke:none;opacity:1"
       d="m 159.28588,148.86011 c -2.32441,-7.37244 -7.84719,-13.31293 -14.96992,-16.16449 l 13.83084,-28.72986 0,18.99293 c -1.64158,0.55644 -2.82998,2.09166 -2.82998,3.91974 0,2.23039 1.76334,4.03535 3.96906,4.134 2.20572,-0.0986 3.96906,-1.90361 3.96906,-4.134 0,-1.82808 -1.18994,-3.3633 -2.82998,-3.91974 l 0,-18.99293 13.83084,28.72986 c -7.12273,2.85156 -12.64551,8.79205 -14.96992,16.16449" /><path
       inkscape:connector-curvature="0"
       id="path118"
       style="fill:#ffffff;fill-opacity:1;fill-rule:nonzero;stroke:none"
       d="m 216.50746,134.92168 -20.87497,-2.2273 -21.37746,-5.00949 -14.96992,-28.39076 -14.96992,28.39076 -21.37592,5.00949 -20.87497,2.2273 -11.692936,-10.06215 c 0,0 62.395236,-24.17353 68.913746,-42.405022 6.52005,18.231492 68.91529,42.405022 68.91529,42.405022 l -11.69294,10.06215 z" /><path
       inkscape:connector-curvature="0"
       id="path122"
       style="fill:#ffffff;fill-opacity:1;fill-rule:nonzero;stroke:none"
       d="m 90.371518,124.85922 28.845462,-22.64293 0,18.37021" /><path
       inkscape:connector-curvature="0"
       id="path126"
       style="fill:#ffffff;fill-opacity:1;fill-rule:nonzero;stroke:none"
       d="m 228.20271,124.85922 -28.84546,-22.64293 0,18.37021" /><path
       inkscape:connector-curvature="0"
       id="path130"
       style="fill:#ffffff;fill-opacity:1;fill-rule:nonzero;stroke:none"
       d="m 159.28588,82.4542 -47.20181,32.98408 24.6344,0 c 0,0 22.58899,-26.721436 22.56741,-32.98408" /><path
       inkscape:connector-curvature="0"
       id="path134"
       style="fill:#ffffff;fill-opacity:1;fill-rule:nonzero;stroke:none"
       d="m 159.28588,82.4542 47.20181,32.98408 -24.6344,0 c 0,0 -22.58899,-26.721436 -22.56741,-32.98408" /></g></svg>