<?xml version="1.0" encoding="UTF-8" standalone="no"?>
<!-- Created with Inkscape (http://www.inkscape.org/) -->

<svg
   xmlns:dc="http://purl.org/dc/elements/1.1/"
   xmlns:cc="http://creativecommons.org/ns#"
   xmlns:rdf="http://www.w3.org/1999/02/22-rdf-syntax-ns#"
   xmlns:svg="http://www.w3.org/2000/svg"
   xmlns="http://www.w3.org/2000/svg"
   xmlns:sodipodi="http://sodipodi.sourceforge.net/DTD/sodipodi-0.dtd"
   xmlns:inkscape="http://www.inkscape.org/namespaces/inkscape"
   id="svg2"
   version="1.1"
   inkscape:version="0.91 r13725"
   xml:space="preserve"
   width="500"
   height="148.048"
   viewBox="0 0 500 148.048"
   sodipodi:docname="white.svg"
   inkscape:export-filename="/home/ionicabizau/Documents/bloggify-logos/logo/white.png"
   inkscape:export-xdpi="156"
   inkscape:export-ydpi="156"><metadata
     id="metadata8"><rdf:RDF><cc:Work
         rdf:about=""><dc:format>image/svg+xml</dc:format><dc:type
           rdf:resource="http://purl.org/dc/dcmitype/StillImage" /><dc:title /></cc:Work></rdf:RDF></metadata><defs
     id="defs6"><clipPath
       clipPathUnits="userSpaceOnUse"
       id="clipPath16"><path
         d="M 0,612 792,612 792,0 0,0 0,612 Z"
         id="path18"
         inkscape:connector-curvature="0" /></clipPath></defs><sodipodi:namedview
     pagecolor="#ffffff"
     bordercolor="#666666"
     borderopacity="1"
     objecttolerance="10"
     gridtolerance="10"
     guidetolerance="10"
     inkscape:pageopacity="0"
     inkscape:pageshadow="2"
     inkscape:window-width="1920"
     inkscape:window-height="1056"
     id="namedview4"
     showgrid="false"
     inkscape:zoom="2.4679739"
     inkscape:cx="107.16489"
     inkscape:cy="129.66003"
     inkscape:window-x="0"
     inkscape:window-y="24"
     inkscape:window-maximized="1"
     inkscape:current-layer="g10" /><g
     id="g10"
     inkscape:groupmode="layer"
     inkscape:label="bloggify logo revised (1)"
     transform="matrix(1.25,0,0,-1.25,0,148.048)"><g
       id="g3558"
       transform="matrix(1.141918,0,0,1.141918,-311.0825,-301.99345)"
       style="fill:#ffffff"><path
         d="m 531.8239,367.4366 -0.002,0 -0.002,0.462 c 0,0.147 -0.12,0.266 -0.266,0.265 l -0.162,0 0.056,-16.775 c 1.407,-0.165 2.462,-1.487 2.055,-3.022 -0.211,-0.793 -0.854,-1.443 -1.646,-1.659 -1.626,-0.444 -3.094,0.767 -3.094,2.322 0,1.232 0.937,2.21 2.13,2.357 l -0.055,16.775 -0.161,-0.001 c -0.147,0 -0.266,-0.12 -0.265,-0.266 l 0.001,-0.463 -0.002,0 c -0.348,-6.428 -7.9,-18.034 -7.9,-18.034 l 2.565,-8.527 c 0.766,-2.543 3.111,-4.281 5.767,-4.272 l 0.376,0.001 0.377,10e-4 c 2.655,0.009 4.99,1.762 5.738,4.311 l 2.509,8.543 c 0,0 -7.629,11.556 -8.019,17.982"
         style="fill:#ffffff;fill-opacity:1;fill-rule:nonzero;stroke:none"
         id="path22"
         inkscape:connector-curvature="0" /><path
         d="m 336.6722,357.1094 c -1.782,0 -3.372,-0.692 -4.596,-2.003 -1.212,-1.295 -1.826,-2.845 -1.826,-4.604 l 0,-57.967 c 0,-1.762 0.614,-3.311 1.824,-4.604 1.224,-1.31 2.814,-2.004 4.598,-2.004 1.844,0 3.439,0.66 4.74,1.96 1.301,1.301 1.96,2.866 1.96,4.648 l 0,57.967 c 0,1.781 -0.659,3.344 -1.961,4.648 -1.301,1.3 -2.896,1.959 -4.739,1.959"
         style="fill:#ffffff;fill-opacity:1;fill-rule:nonzero;stroke:none"
         id="path26"
         inkscape:connector-curvature="0" /><path
         d="m 384.0907,301.543 c -2.229,-2.176 -4.887,-3.233 -8.126,-3.233 -3.174,0 -5.785,1.055 -7.981,3.226 -2.19,2.162 -3.255,4.903 -3.255,8.38 0,3.404 1.059,6.08 3.239,8.181 2.199,2.117 4.815,3.147 7.997,3.147 3.247,0 5.911,-1.032 8.142,-3.155 2.206,-2.102 3.279,-4.775 3.279,-8.173 0,-3.47 -1.078,-6.209 -3.295,-8.373 m -8.126,32.546 c -6.734,0 -12.517,-2.25 -17.189,-6.69 -4.696,-4.463 -7.077,-10.345 -7.077,-17.483 0,-7.131 2.376,-13.056 7.063,-17.609 4.672,-4.54 10.459,-6.842 17.203,-6.842 6.737,0 12.553,2.299 17.285,6.833 4.755,4.556 7.165,10.483 7.165,17.618 0,7.14 -2.398,13.023 -7.128,17.488 -4.703,4.436 -10.531,6.685 -17.322,6.685"
         style="fill:#ffffff;fill-opacity:1;fill-rule:nonzero;stroke:none"
         id="path30"
         inkscape:connector-curvature="0" /><path
         d="m 302.6742,329.4444 c -1.042,-1.291 -2.481,-1.919 -4.402,-1.919 l -12.405,0 0,13.504 11.755,0 c 2.207,0 3.855,-0.537 5.037,-1.643 1.147,-1.071 1.705,-2.607 1.705,-4.693 0,-2.123 -0.553,-3.841 -1.69,-5.249 m 2.818,-28.155 c -1.348,-1.57 -3.125,-2.332 -5.43,-2.332 l -14.195,0 0,16.554 13.917,0 c 2.291,0 4.106,-0.845 5.548,-2.584 1.526,-1.841 2.268,-3.795 2.268,-5.97 0,-2.163 -0.69,-4.018 -2.108,-5.668 m 6.948,21.139 c 3.782,2.752 5.693,6.985 5.693,12.634 0,5.664 -1.79,10.239 -5.321,13.602 -3.507,3.334 -8.263,5.024 -14.137,5.024 l -19.23,0 c -2.029,0 -3.717,-0.659 -5.017,-1.959 -1.3,-1.301 -1.96,-3.051 -1.96,-5.202 l 0,-52.976 c 0,-2.081 0.653,-3.809 1.939,-5.133 1.301,-1.346 2.996,-2.029 5.038,-2.029 l 21.171,0 c 6.274,0 11.391,2.004 15.209,5.958 3.802,3.937 5.729,8.822 5.729,14.518 0,3.69 -1.183,7.243 -3.518,10.558 -1.531,2.175 -3.405,3.849 -5.596,5.005"
         style="fill:#ffffff;fill-opacity:1;fill-rule:nonzero;stroke:none"
         id="path34"
         inkscape:connector-curvature="0" /><path
         d="m 442.4862,309.7774 c 0,-3.489 -1.135,-6.199 -3.469,-8.287 -2.391,-2.14 -5.023,-3.181 -8.045,-3.181 -3.241,0 -5.885,1.039 -8.083,3.177 -2.183,2.121 -3.245,4.834 -3.245,8.291 0,3.398 1.065,6.099 3.253,8.253 2.197,2.162 4.838,3.214 8.075,3.214 3.321,0 6.021,-1.004 8.255,-3.07 2.193,-2.028 3.259,-4.775 3.259,-8.397 m 6.607,23.85 c -1.782,0 -3.372,-0.694 -4.596,-2.004 -0.617,-0.66 -1.08,-1.386 -1.385,-2.172 -1.112,0.977 -2.406,1.819 -3.877,2.521 -2.944,1.405 -6.098,2.117 -9.372,2.117 -6.501,0 -12.121,-2.29 -16.703,-6.804 -4.589,-4.524 -6.915,-10.461 -6.915,-17.647 0,-7.132 2.33,-13.009 6.925,-17.47 4.58,-4.449 10.196,-6.703 16.693,-6.703 3.356,0 6.589,0.79 9.608,2.348 1.168,0.603 2.211,1.301 3.126,2.091 -0.577,-8.821 -4.606,-12.951 -12.549,-12.951 -3.63,0 -6.61,1.348 -9.132,4.144 -1.138,1.218 -2.494,1.962 -4.033,2.213 -0.337,0.055 -0.679,0.082 -1.015,0.082 -1.231,0 -2.42,-0.366 -3.571,-1.115 -1.421,-0.974 -2.264,-2.417 -2.438,-4.169 -0.171,-1.687 0.258,-3.231 1.317,-4.644 4.836,-5.962 11.186,-8.986 18.872,-8.986 16.957,0 25.586,9.997 25.652,29.716 l 0.093,32.825 c 0,1.78 -0.66,3.344 -1.961,4.649 -1.303,1.299 -2.898,1.959 -4.739,1.959"
         style="fill:#ffffff;fill-opacity:1;fill-rule:nonzero;stroke:none"
         id="path38"
         inkscape:connector-curvature="0" /><path
         d="m 570.8505,343.8946 0.74,0 c 1.773,0 3.357,0.676 4.583,1.956 1.22,1.275 1.839,2.825 1.839,4.607 0,1.729 -0.675,3.279 -1.952,4.486 -1.267,1.192 -2.771,1.797 -4.47,1.797 l -0.74,0 c -6.267,0 -11.072,-1.969 -14.283,-5.851 -3.127,-3.779 -4.712,-9.006 -4.712,-15.533 l 0,-2.192 -3.008,0 c -1.524,0 -2.877,-0.558 -4.022,-1.659 -1.147,-1.103 -1.753,-2.558 -1.753,-4.209 0,-1.544 0.615,-2.928 1.78,-4.004 1.141,-1.053 2.484,-1.586 3.995,-1.586 l 3.008,0 0,-29.171 c 0,-1.786 0.659,-3.349 1.959,-4.648 1.3,-1.301 2.894,-1.96 4.74,-1.96 1.781,0 3.371,0.693 4.598,2.003 1.211,1.297 1.825,2.846 1.825,4.605 l 0,29.171 4.394,0 c 1.509,0 2.853,0.533 3.997,1.587 1.163,1.078 1.778,2.461 1.778,4.003 0,1.648 -0.606,3.103 -1.755,4.211 -1.145,1.099 -2.497,1.657 -4.02,1.657 l -4.394,0 0,2.175 c 0,7.582 3.139,8.555 5.873,8.555"
         style="fill:#ffffff;fill-opacity:1;fill-rule:nonzero;stroke:none"
         id="path42"
         inkscape:connector-curvature="0" /><path
         d="m 500.3602,309.7774 c 0,-3.489 -1.135,-6.199 -3.469,-8.287 -2.391,-2.14 -5.023,-3.181 -8.045,-3.181 -3.241,0 -5.885,1.039 -8.083,3.177 -2.183,2.121 -3.245,4.834 -3.245,8.291 0,3.398 1.065,6.099 3.253,8.253 2.197,2.162 4.838,3.214 8.075,3.214 3.321,0 6.021,-1.004 8.255,-3.07 2.193,-2.028 3.259,-4.775 3.259,-8.397 m 6.607,23.85 c -1.782,0 -3.372,-0.694 -4.596,-2.004 -0.617,-0.66 -1.08,-1.386 -1.385,-2.172 -1.112,0.977 -2.406,1.819 -3.877,2.521 -2.944,1.405 -6.098,2.117 -9.372,2.117 -6.501,0 -12.121,-2.29 -16.703,-6.804 -4.589,-4.524 -6.915,-10.461 -6.915,-17.647 0,-7.132 2.33,-13.009 6.925,-17.47 4.58,-4.449 10.196,-6.703 16.693,-6.703 3.356,0 6.589,0.79 9.608,2.348 1.168,0.603 2.211,1.301 3.126,2.091 -0.577,-8.821 -4.606,-12.951 -12.549,-12.951 -3.63,0 -6.61,1.348 -9.132,4.144 -1.138,1.218 -2.494,1.962 -4.033,2.213 -0.338,0.055 -0.679,0.082 -1.015,0.082 -1.231,0 -2.42,-0.366 -3.571,-1.115 -1.421,-0.974 -2.264,-2.417 -2.438,-4.169 -0.171,-1.687 0.258,-3.231 1.316,-4.644 4.837,-5.962 11.187,-8.986 18.873,-8.986 16.957,0 25.586,9.997 25.652,29.716 l 0.093,32.825 c 0,1.78 -0.66,3.344 -1.961,4.649 -1.303,1.299 -2.898,1.959 -4.739,1.959"
         style="fill:#ffffff;fill-opacity:1;fill-rule:nonzero;stroke:none"
         id="path46"
         inkscape:connector-curvature="0" /><path
         d="m 621.969,330.0742 c -0.847,1.731 -2.213,2.877 -3.954,3.313 -0.582,0.146 -1.166,0.22 -1.735,0.22 -1.042,0 -2.059,-0.244 -3.02,-0.724 -1.512,-0.756 -2.611,-1.976 -3.264,-3.609 l -9.33,-22.735 -9.245,22.722 c -0.661,1.648 -1.762,2.867 -3.27,3.622 -0.961,0.48 -1.978,0.724 -3.02,0.724 -0.57,0 -1.154,-0.074 -1.734,-0.22 -1.743,-0.435 -3.111,-1.582 -3.954,-3.313 -0.842,-1.723 -0.92,-3.501 -0.231,-5.132 l 14.416,-34.725 -6.751,-16.613 c -0.68,-1.698 -0.596,-3.487 0.245,-5.173 0.846,-1.693 2.211,-2.817 3.949,-3.252 0.581,-0.145 1.164,-0.218 1.734,-0.218 1.043,0 2.059,0.243 3.019,0.723 1.508,0.755 2.609,1.973 3.261,3.602 l 23.11,55.647 c 0.691,1.64 0.614,3.417 -0.226,5.141"
         style="fill:#ffffff;fill-opacity:1;fill-rule:nonzero;stroke:none"
         id="path50"
         inkscape:connector-curvature="0" /><path
         d="m 530.7274,333.627 c -1.782,0 -3.372,-0.693 -4.597,-2.004 -1.212,-1.295 -1.826,-2.844 -1.826,-4.603 l 0,-34.485 c 0,-1.762 0.614,-3.311 1.825,-4.603 1.224,-1.311 2.814,-2.004 4.598,-2.004 1.845,0 3.439,0.659 4.739,1.96 1.301,1.3 1.96,2.864 1.96,4.647 l 0,34.485 c 0,1.781 -0.659,3.344 -1.96,4.647 -1.302,1.301 -2.896,1.96 -4.739,1.96"
         style="fill:#ffffff;fill-opacity:1;fill-rule:nonzero;stroke:none"
         id="path54"
         inkscape:connector-curvature="0" /></g></g></svg>