<?xml version="1.0" encoding="UTF-8" standalone="no"?>


<svg
   xmlns:dc="http://purl.org/dc/elements/1.1/"
   xmlns:cc="http://creativecommons.org/ns#"
   xmlns:rdf="http://www.w3.org/1999/02/22-rdf-syntax-ns#"
   xmlns:svg="http://www.w3.org/2000/svg"
   xmlns="http://www.w3.org/2000/svg"
   xmlns:sodipodi="http://sodipodi.sourceforge.net/DTD/sodipodi-0.dtd"
   xmlns:inkscape="http://www.inkscape.org/namespaces/inkscape"
   width="744.09448"
   height="221.476"
   viewBox="0 0 744.09449 221.47599"
   id="svg2"
   version="1.1"
   inkscape:version="0.91 r13725"
   sodipodi:docname="logo.svg">
  <defs
     id="defs4" />
  <sodipodi:namedview
     id="base"
     pagecolor="#ffffff"
     bordercolor="#666666"
     borderopacity="1.0"
     inkscape:pageopacity="0.0"
     inkscape:pageshadow="2"
     inkscape:zoom="0.7"
     inkscape:cx="-230.05583"
     inkscape:cy="376.8584"
     inkscape:document-units="px"
     inkscape:current-layer="layer1"
     showgrid="false"
     inkscape:window-width="1920"
     inkscape:window-height="1056"
     inkscape:window-x="0"
     inkscape:window-y="24"
     inkscape:window-maximized="1"
     units="px" />
  <metadata
     id="metadata7">
    <rdf:RDF>
      <cc:Work
         rdf:about="">
        <dc:format>image/svg+xml</dc:format>
        <dc:type
           rdf:resource="http://purl.org/dc/dcmitype/StillImage" />
        <dc:title />
      </cc:Work>
    </rdf:RDF>
  </metadata>
  <g
     inkscape:label="Layer 1"
     inkscape:groupmode="layer"
     id="layer1"
     transform="translate(0,-830.88626)">
    <g
       transform="matrix(2.119999,0,0,-2.119999,-423.84673,2363.0816)"
       id="g4115"
       style="fill:#ffffff">
      <g
         transform="translate(459.2813,722.007)"
         id="g260"
         style="fill:#ffffff">
        <path
           inkscape:connector-curvature="0"
           id="path262"
           style="fill:#ffffff;fill-opacity:1;fill-rule:nonzero;stroke:none"
           d="m 0,0 -0.002,0.462 c 0,0.147 -0.119,0.266 -0.266,0.265 l -0.161,0 0.055,-16.775 c 1.2,-0.14 2.144,-1.122 2.144,-2.359 0,-1.334 -1.081,-2.415 -2.415,-2.415 -1.333,0 -2.414,1.081 -2.414,2.415 0,1.232 0.937,2.21 2.131,2.357 L -0.984,0.725 -1.145,0.724 c -0.147,0 -0.265,-0.12 -0.265,-0.266 l 0.002,-0.463 -0.003,0 c -0.348,-6.428 -7.9,-18.034 -7.9,-18.034 l 3.856,-12.814 4.853,0.016 4.853,0.016 3.771,12.839 c 0,0 -7.629,11.556 -8.02,17.982 L 0,0 Z" />
      </g>
      <g
         transform="translate(311.5504,656.1135)"
         id="g264"
         style="fill:#ffffff">
        <path
           inkscape:connector-curvature="0"
           id="path266"
           style="fill:#ffffff;fill-opacity:1;fill-rule:nonzero;stroke:none"
           d="m 0,0 c -2.229,-2.176 -4.887,-3.233 -8.126,-3.233 -3.174,0 -5.785,1.055 -7.981,3.226 -2.19,2.162 -3.255,4.903 -3.255,8.38 0,3.404 1.059,6.08 3.239,8.181 2.199,2.117 4.815,3.147 7.997,3.147 3.247,0 5.911,-1.032 8.142,-3.155 C 2.222,14.444 3.295,11.771 3.295,8.373 3.295,4.903 2.217,2.164 0,0 m -8.126,32.546 c -6.734,0 -12.517,-2.25 -17.189,-6.69 -4.696,-4.463 -7.077,-10.345 -7.077,-17.483 0,-7.131 2.376,-13.056 7.063,-17.609 4.672,-4.54 10.459,-6.842 17.203,-6.842 6.737,0 12.553,2.299 17.285,6.833 4.755,4.556 7.165,10.483 7.165,17.618 0,7.14 -2.398,13.023 -7.128,17.488 -4.703,4.436 -10.531,6.685 -17.322,6.685" />
      </g>
      <g
         transform="translate(232.9518,655.8596)"
         id="g268"
         style="fill:#ffffff">
        <path
           inkscape:connector-curvature="0"
           id="path270"
           style="fill:#ffffff;fill-opacity:1;fill-rule:nonzero;stroke:none"
           d="m 0,0 c -1.348,-1.569 -3.125,-2.332 -5.43,-2.332 l -14.195,0 0,16.555 13.917,0 c 2.291,0 4.106,-0.846 5.548,-2.584 C 1.366,9.797 2.108,7.844 2.108,5.668 2.108,3.505 1.418,1.65 0,0 m -19.625,39.74 11.755,0 c 2.207,0 3.855,-0.537 5.037,-1.642 1.147,-1.072 1.705,-2.608 1.705,-4.694 0,-2.123 -0.553,-3.841 -1.69,-5.249 -1.041,-1.291 -2.481,-1.919 -4.402,-1.919 l -12.405,0 0,13.504 z M 6.948,21.14 c 3.782,2.752 5.694,6.984 5.694,12.633 0,5.665 -1.79,10.24 -5.322,13.602 -3.507,3.334 -8.263,5.024 -14.137,5.024 l -19.23,0 c -0.32,0 -0.629,-0.022 -0.932,-0.055 -0.18,0.028 -0.361,0.055 -0.548,0.055 l -1.871,0 c -2.002,0 -3.626,-1.623 -3.626,-3.626 l 0,-3.535 0,-52.975 0,-3.536 c 0,-2.003 1.624,-3.626 3.626,-3.626 l 1.871,0 c 0.189,0 0.371,0.027 0.553,0.055 0.301,-0.033 0.608,-0.055 0.927,-0.055 l 21.172,0 c 6.273,0 11.39,2.003 15.208,5.958 3.802,3.936 5.729,8.821 5.729,14.517 0,3.691 -1.183,7.243 -3.518,10.559 -1.531,2.175 -3.405,3.848 -5.596,5.005" />
      </g>
      <g
         transform="translate(267.2793,711.7037)"
         id="g272"
         style="fill:#ffffff">
        <path
           inkscape:connector-curvature="0"
           id="path274"
           style="fill:#ffffff;fill-opacity:1;fill-rule:nonzero;stroke:none"
           d="M 0,0 -6.017,0 C -7.979,0 -9.57,-1.591 -9.57,-3.553 l 0,-3.078 0,-57.967 0,-3.055 c 0,-1.962 1.591,-3.552 3.553,-3.552 l 6.017,0 c 1.962,0 3.553,1.59 3.553,3.552 l 0,3.055 0,57.967 0,3.078 C 3.553,-1.591 1.962,0 0,0" />
      </g>
      <g
         transform="translate(366.4772,656.0608)"
         id="g276"
         style="fill:#ffffff">
        <path
           inkscape:connector-curvature="0"
           id="path278"
           style="fill:#ffffff;fill-opacity:1;fill-rule:nonzero;stroke:none"
           d="m 0,0 c -2.392,-2.14 -5.023,-3.181 -8.045,-3.181 -3.241,0 -5.886,1.039 -8.083,3.177 -2.184,2.121 -3.245,4.834 -3.245,8.291 0,3.399 1.064,6.099 3.253,8.253 2.197,2.162 4.838,3.214 8.075,3.214 3.32,0 6.021,-1.004 8.255,-3.069 C 2.402,14.656 3.469,11.909 3.469,8.287 3.469,4.798 2.334,2.088 0,0 m 14.408,32.137 -8.009,0 c -1.307,0 -2.367,-1.06 -2.367,-2.368 l 0,-1.757 c -1.099,0.955 -2.37,1.781 -3.814,2.47 -2.945,1.405 -6.098,2.117 -9.372,2.117 -6.501,0 -12.121,-2.289 -16.703,-6.804 -4.589,-4.524 -6.915,-10.461 -6.915,-17.647 0,-7.131 2.33,-13.009 6.924,-17.47 4.58,-4.449 10.197,-6.703 16.694,-6.703 3.356,0 6.589,0.79 9.608,2.348 1.168,0.603 2.211,1.301 3.126,2.091 -0.577,-8.821 -4.606,-12.951 -12.55,-12.951 -3.63,0 -6.609,1.349 -9.132,4.144 -1.137,1.218 -2.494,1.962 -4.032,2.213 -0.338,0.055 -0.679,0.082 -1.015,0.082 -1.231,0 -2.42,-0.366 -3.572,-1.115 -1.421,-0.974 -2.263,-2.417 -2.437,-4.169 -0.171,-1.687 0.258,-3.231 1.317,-4.643 4.836,-5.963 11.186,-8.987 18.871,-8.987 16.957,0 25.587,9.997 25.653,29.716 l 0.09,31.915 c 0,0.009 0.002,0.017 0.002,0.025 l 0,5.125 c 0,1.308 -1.06,2.368 -2.367,2.368" />
      </g>
      <g
         transform="translate(424.3512,656.0608)"
         id="g280"
         style="fill:#ffffff">
        <path
           inkscape:connector-curvature="0"
           id="path282"
           style="fill:#ffffff;fill-opacity:1;fill-rule:nonzero;stroke:none"
           d="m 0,0 c -2.392,-2.14 -5.023,-3.181 -8.045,-3.181 -3.241,0 -5.886,1.039 -8.083,3.177 -2.184,2.121 -3.245,4.834 -3.245,8.291 0,3.399 1.064,6.099 3.253,8.253 2.197,2.162 4.838,3.214 8.075,3.214 3.32,0 6.021,-1.004 8.255,-3.069 C 2.402,14.656 3.469,11.909 3.469,8.287 3.469,4.798 2.334,2.088 0,0 m 14.408,32.137 -8.009,0 c -1.307,0 -2.367,-1.06 -2.367,-2.368 l 0,-1.757 c -1.099,0.955 -2.37,1.781 -3.814,2.47 -2.945,1.405 -6.098,2.117 -9.372,2.117 -6.501,0 -12.121,-2.289 -16.703,-6.804 -4.589,-4.524 -6.915,-10.461 -6.915,-17.647 0,-7.131 2.33,-13.009 6.924,-17.47 4.58,-4.449 10.197,-6.703 16.694,-6.703 3.356,0 6.589,0.79 9.608,2.348 1.168,0.603 2.211,1.301 3.126,2.091 -0.577,-8.821 -4.606,-12.951 -12.55,-12.951 -3.63,0 -6.609,1.349 -9.132,4.144 -1.137,1.218 -2.494,1.962 -4.032,2.213 -0.339,0.055 -0.679,0.082 -1.015,0.082 -1.231,0 -2.42,-0.366 -3.572,-1.115 -1.421,-0.974 -2.263,-2.417 -2.437,-4.169 -0.171,-1.687 0.258,-3.231 1.316,-4.643 4.837,-5.963 11.187,-8.987 18.872,-8.987 16.957,0 25.587,9.997 25.653,29.716 l 0.09,31.915 c 0,0.009 0.002,0.017 0.002,0.025 l 0,5.125 c 0,1.308 -1.06,2.368 -2.367,2.368" />
      </g>
      <g
         transform="translate(464.8433,685.7677)"
         id="g284"
         style="fill:#ffffff">
        <path
           inkscape:connector-curvature="0"
           id="path286"
           style="fill:#ffffff;fill-opacity:1;fill-rule:nonzero;stroke:none"
           d="m 0,0 c 0,1.342 -1.088,2.43 -2.43,2.43 l -8.219,0 c -1.342,0 -2.43,-1.088 -2.43,-2.43 l 0,-4.178 0,-1.082 0,-32.32 0,-1.082 0,-4.178 c 0,-1.342 1.088,-2.429 2.43,-2.429 l 8.219,0 c 1.342,0 2.43,1.087 2.43,2.429 l 0,3.435 c 0.026,0.244 0.043,0.491 0.043,0.743 l 0,34.484 c 0,0.252 -0.017,0.499 -0.043,0.742 L 0,0 Z" />
      </g>
      <g
         transform="translate(548.1308,686.8782)"
         id="g288"
         style="fill:#ffffff">
        <path
           inkscape:connector-curvature="0"
           id="path290"
           style="fill:#ffffff;fill-opacity:1;fill-rule:nonzero;stroke:none"
           d="M 0,0 -4.175,1.736 C -6.337,2.635 -8.818,1.612 -9.717,-0.55 L -20.102,-25.519 -30.486,-0.55 c -0.899,2.162 -3.38,3.185 -5.542,2.286 L -40.203,0 c -2.162,-0.899 -3.186,-3.38 -2.287,-5.542 l 15.348,-36.904 -7.72,-18.563 c -0.899,-2.162 0.125,-4.644 2.286,-5.543 l 4.176,-1.736 c 2.162,-0.899 4.643,0.124 5.542,2.286 L 2.286,-5.542 C 3.186,-3.38 2.162,-0.899 0,0" />
      </g>
      <g
         transform="translate(505.4723,709.2818)"
         id="g292"
         style="fill:#ffffff">
        <path
           inkscape:connector-curvature="0"
           id="path294"
           style="fill:#ffffff;fill-opacity:1;fill-rule:nonzero;stroke:none"
           d="m 0,0 c 0,1.111 -0.901,2.012 -2.012,2.012 l -3.446,0 -0.774,0 c -0.065,10e-4 -0.125,0.017 -0.19,0.017 l -0.74,0 c -6.267,0 -11.072,-1.969 -14.283,-5.851 -3.127,-3.779 -4.712,-9.005 -4.712,-15.533 l 0,-2.192 -6.265,0 c -1.391,0 -2.518,-1.127 -2.518,-2.518 l 0,-6.422 c 0,-1.39 1.127,-2.518 2.518,-2.518 l 3.253,0 c 0.001,0 0.003,0 0.004,0 l 3.008,0 0,-29.171 c 0,-0.01 0.001,-0.02 0.001,-0.03 l 0,-4.148 c 0,-1.342 1.088,-2.43 2.43,-2.43 l 8.219,0 c 1.342,0 2.43,1.088 2.43,2.43 l 0,3.433 c 0.025,0.244 0.042,0.492 0.042,0.745 l 0,29.171 4.394,0 c 0.002,0 0.003,0 0.004,0 l 3.253,0 c 1.39,0 2.518,1.128 2.518,2.518 l 0,6.422 c 0,1.391 -1.128,2.518 -2.518,2.518 l -7.651,0 0,2.176 c 0,7.582 3.139,8.554 5.873,8.554 l 0.241,0 0.499,0 1.664,0 0.587,0 2.159,0 c 1.111,0 2.012,0.901 2.012,2.012 L 0,0 Z" />
      </g>
    </g>
  </g>
</svg>
