<?xml version="1.0" encoding="UTF-8" standalone="no"?>
<svg
   xmlns:dc="http://purl.org/dc/elements/1.1/"
   xmlns:cc="http://creativecommons.org/ns#"
   xmlns:rdf="http://www.w3.org/1999/02/22-rdf-syntax-ns#"
   xmlns:svg="http://www.w3.org/2000/svg"
   xmlns="http://www.w3.org/2000/svg"
   xmlns:sodipodi="http://sodipodi.sourceforge.net/DTD/sodipodi-0.dtd"
   xmlns:inkscape="http://www.inkscape.org/namespaces/inkscape"
   width="744.09448"
   height="221.476"
   viewBox="0 0 744.09449 221.47599"
   id="svg2"
   version="1.1"
   inkscape:version="0.91 r13725"
   sodipodi:docname="logo.svg">
  <defs
     id="defs4" />
  <sodipodi:namedview
     id="base"
     pagecolor="#ffffff"
     bordercolor="#666666"
     borderopacity="1.0"
     inkscape:pageopacity="0.0"
     inkscape:pageshadow="2"
     inkscape:zoom="0.7"
     inkscape:cx="189.47695"
     inkscape:cy="262.57269"
     inkscape:document-units="px"
     inkscape:current-layer="layer1"
     showgrid="false"
     inkscape:window-width="1920"
     inkscape:window-height="1056"
     inkscape:window-x="0"
     inkscape:window-y="24"
     inkscape:window-maximized="1"
     units="px" />
  <metadata
     id="metadata7">
    <rdf:RDF>
      <cc:Work
         rdf:about="">
        <dc:format>image/svg+xml</dc:format>
        <dc:type
           rdf:resource="http://purl.org/dc/dcmitype/StillImage" />
        <dc:title />
      </cc:Work>
    </rdf:RDF>
  </metadata>
  <g
     inkscape:label="Layer 1"
     inkscape:groupmode="layer"
     id="layer1"
     transform="translate(0,-830.88626)">
    <g
       transform="matrix(2.1017636,0,0,2.1017636,-422.9323,-98.22331)"
       id="g139"
       style="fill:#ffffff">
      <g
         id="g141"
         style="fill:#ffffff">
        <path
           style="fill:#ffffff"
           inkscape:connector-curvature="0"
           d="m 462.5,443.6 0,0 0,-0.5 c 0,-0.1 -0.1,-0.3 -0.3,-0.3 l -0.2,0 0.1,16.8 c 1.2,0.1 2.1,1.1 2.1,2.4 0,1.3 -1.1,2.4 -2.4,2.4 -1.3,0 -2.4,-1.1 -2.4,-2.4 0,-1.2 0.9,-2.2 2.1,-2.4 l -0.1,-16.8 -0.2,0 c -0.1,0 -0.3,0.1 -0.3,0.3 l 0,0.5 0,0 c -0.3,6.4 -7.9,18 -7.9,18 l 3.9,12.8 4.9,0 4.9,0 3.8,-12.8 c 0,0 -7.6,-11.6 -8,-18 z"
           id="path143" />
      </g>
      <path
         style="fill:#ffffff"
         inkscape:connector-curvature="0"
         d="m 267.3,453.9 c -1.8,0 -3.4,0.7 -4.6,2 -1.2,1.3 -1.8,2.8 -1.8,4.6 l 0,58 c 0,1.8 0.6,3.3 1.8,4.6 1.2,1.3 2.8,2 4.6,2 1.8,0 3.4,-0.7 4.7,-2 1.3,-1.3 2,-2.9 2,-4.6 l 0,-58 c 0,-1.8 -0.7,-3.3 -2,-4.6 -1.2,-1.3 -2.8,-2 -4.7,-2 z"
         id="path145" />
      <path
         style="fill:#ffffff"
         inkscape:connector-curvature="0"
         d="m 306.6,477 c -6.7,0 -12.5,2.3 -17.2,6.7 -4.7,4.5 -7.1,10.3 -7.1,17.5 0,7.1 2.4,13.1 7.1,17.6 4.7,4.5 10.5,6.8 17.2,6.8 6.7,0 12.6,-2.3 17.3,-6.8 4.8,-4.6 7.2,-10.5 7.2,-17.6 0,-7.1 -2.4,-13 -7.1,-17.5 -4.8,-4.5 -10.6,-6.7 -17.4,-6.7 z m 8.1,32.5 c -2.2,2.2 -4.9,3.2 -8.1,3.2 -3.2,0 -5.8,-1.1 -8,-3.2 -2.2,-2.2 -3.3,-4.9 -3.3,-8.4 0,-3.4 1.1,-6.1 3.2,-8.2 2.2,-2.1 4.8,-3.1 8,-3.1 3.2,0 5.9,1 8.1,3.2 2.2,2.1 3.3,4.8 3.3,8.2 0.1,3.4 -0.9,6.2 -3.2,8.3 z"
         id="path147" />
      <path
         style="fill:#ffffff"
         inkscape:connector-curvature="0"
         d="m 243.1,488.6 c 3.8,-2.8 5.7,-7 5.7,-12.6 0,-5.7 -1.8,-10.2 -5.3,-13.6 -3.5,-3.3 -8.3,-5 -14.1,-5 l -19.2,0 c -2,0 -3.7,0.7 -5,2 -1.3,1.3 -2,3.1 -2,5.2 l 0,53 c 0,2.1 0.7,3.8 1.9,5.1 1.3,1.3 3,2 5,2 l 21.2,0 c 6.3,0 11.4,-2 15.2,-6 3.8,-3.9 5.7,-8.8 5.7,-14.5 0,-3.7 -1.2,-7.2 -3.5,-10.6 -1.5,-2.1 -3.4,-3.8 -5.6,-5 z m -6.9,21.2 c -1.3,1.6 -3.1,2.3 -5.4,2.3 l -14.2,0 0,-16.6 13.9,0 c 2.3,0 4.1,0.8 5.5,2.6 1.5,1.8 2.3,3.8 2.3,6 0,2.2 -0.7,4 -2.1,5.7 z m -2.9,-28.2 c -1,1.3 -2.5,1.9 -4.4,1.9 l -12.4,0 0,-13.5 11.8,0 c 2.2,0 3.9,0.5 5,1.6 1.1,1.1 1.7,2.6 1.7,4.7 0,2.2 -0.5,3.9 -1.7,5.3 z"
         id="path149" />
      <path
         style="fill:#ffffff"
         inkscape:connector-curvature="0"
         d="m 379.8,477.4 c -1.8,0 -3.4,0.7 -4.6,2 -0.6,0.7 -1.1,1.4 -1.4,2.2 -1.1,-1 -2.4,-1.8 -3.9,-2.5 -2.9,-1.4 -6.1,-2.1 -9.4,-2.1 -6.5,0 -12.1,2.3 -16.7,6.8 -4.6,4.5 -6.9,10.5 -6.9,17.6 0,7.1 2.3,13 6.9,17.5 4.6,4.4 10.2,6.7 16.7,6.7 3.4,0 6.6,-0.8 9.6,-2.3 1.2,-0.6 2.2,-1.3 3.1,-2.1 -0.6,8.8 -4.6,13 -12.5,13 -3.6,0 -6.6,-1.3 -9.1,-4.1 -1.1,-1.2 -2.5,-2 -4,-2.2 -0.3,-0.1 -0.7,-0.1 -1,-0.1 -1.2,0 -2.4,0.4 -3.6,1.1 -1.4,1 -2.3,2.4 -2.4,4.2 -0.2,1.7 0.3,3.2 1.3,4.6 4.8,6 11.2,9 18.9,9 17,0 25.6,-10 25.7,-29.7 l 0.1,-32.8 c 0,-1.8 -0.7,-3.3 -2,-4.6 -1.4,-1.5 -3,-2.2 -4.8,-2.2 z m -6.7,23.9 c 0,3.5 -1.1,6.2 -3.5,8.3 -2.4,2.1 -5,3.2 -8,3.2 -3.2,0 -5.9,-1 -8.1,-3.2 -2.2,-2.1 -3.2,-4.8 -3.2,-8.3 0,-3.4 1.1,-6.1 3.3,-8.3 2.2,-2.2 4.8,-3.2 8.1,-3.2 3.3,0 6,1 8.3,3.1 2.1,2 3.1,4.8 3.1,8.4 z"
         id="path151" />
      <path
         style="fill:#ffffff"
         inkscape:connector-curvature="0"
         d="m 501.5,467.2 0.7,0 c 1.8,0 3.4,-0.7 4.6,-2 1.2,-1.3 1.8,-2.8 1.8,-4.6 0,-1.7 -0.7,-3.3 -2,-4.5 -1.3,-1.2 -2.8,-1.8 -4.5,-1.8 l -0.7,0 c -6.3,0 -11.1,2 -14.3,5.9 -3.1,3.8 -4.7,9 -4.7,15.5 l 0,2.2 -3,0 c -1.5,0 -2.9,0.6 -4,1.7 -1.1,1.1 -1.8,2.6 -1.8,4.2 0,1.5 0.6,2.9 1.8,4 1.1,1.1 2.5,1.6 4,1.6 l 3,0 0,29.2 c 0,1.8 0.7,3.3 2,4.6 1.3,1.3 2.9,2 4.7,2 1.8,0 3.4,-0.7 4.6,-2 1.2,-1.3 1.8,-2.8 1.8,-4.6 l 0,-29.2 4.4,0 c 1.5,0 2.9,-0.5 4,-1.6 1.2,-1.1 1.8,-2.5 1.8,-4 0,-1.6 -0.6,-3.1 -1.8,-4.2 -1.1,-1.1 -2.5,-1.7 -4,-1.7 l -4.4,0 0,-2.2 c 0.1,-7.6 3.3,-8.5 6,-8.5 z"
         id="path153" />
      <path
         style="fill:#ffffff"
         inkscape:connector-curvature="0"
         d="m 437.6,477.4 c -1.8,0 -3.4,0.7 -4.6,2 -0.6,0.7 -1.1,1.4 -1.4,2.2 -1.1,-1 -2.4,-1.8 -3.9,-2.5 -2.9,-1.4 -6.1,-2.1 -9.4,-2.1 -6.5,0 -12.1,2.3 -16.7,6.8 -4.6,4.5 -6.9,10.5 -6.9,17.6 0,7.1 2.3,13 6.9,17.5 4.6,4.4 10.2,6.7 16.7,6.7 3.4,0 6.6,-0.8 9.6,-2.3 1.2,-0.6 2.2,-1.3 3.1,-2.1 -0.6,8.8 -4.6,13 -12.5,13 -3.6,0 -6.6,-1.3 -9.1,-4.1 -1.1,-1.2 -2.5,-2 -4,-2.2 -0.3,-0.1 -0.7,-0.1 -1,-0.1 -1.2,0 -2.4,0.4 -3.6,1.1 -1.4,1 -2.3,2.4 -2.4,4.2 -0.2,1.7 0.3,3.2 1.3,4.6 4.8,6 11.2,9 18.9,9 17,0 25.6,-10 25.7,-29.7 l 0.1,-32.8 c 0,-1.8 -0.7,-3.3 -2,-4.6 -1.3,-1.5 -2.9,-2.2 -4.8,-2.2 z m -6.6,23.9 c 0,3.5 -1.1,6.2 -3.5,8.3 -2.4,2.1 -5,3.2 -8,3.2 -3.2,0 -5.9,-1 -8.1,-3.2 -2.2,-2.1 -3.2,-4.8 -3.2,-8.3 0,-3.4 1.1,-6.1 3.3,-8.3 2.2,-2.2 4.8,-3.2 8.1,-3.2 3.3,0 6,1 8.3,3.1 2.1,2 3.1,4.8 3.1,8.4 z"
         id="path155" />
      <path
         style="fill:#ffffff"
         inkscape:connector-curvature="0"
         d="m 552.6,481 c -0.8,-1.7 -2.2,-2.9 -4,-3.3 -0.6,-0.1 -1.2,-0.2 -1.7,-0.2 -1,0 -2.1,0.2 -3,0.7 -1.5,0.8 -2.6,2 -3.3,3.6 l -9.3,22.7 -9.2,-22.7 c -0.7,-1.6 -1.8,-2.9 -3.3,-3.6 -1,-0.5 -2,-0.7 -3,-0.7 -0.6,0 -1.2,0.1 -1.7,0.2 -1.7,0.4 -3.1,1.6 -4,3.3 -0.8,1.7 -0.9,3.5 -0.2,5.1 l 14.4,34.7 -6.8,16.6 c -0.7,1.7 -0.6,3.5 0.2,5.2 0.8,1.7 2.2,2.8 3.9,3.3 0.6,0.1 1.2,0.2 1.7,0.2 1,0 2.1,-0.2 3,-0.7 1.5,-0.8 2.6,-2 3.3,-3.6 l 23.1,-55.6 c 0.8,-1.7 0.8,-3.5 -0.1,-5.2 z"
         id="path157" />
      <path
         style="fill:#ffffff"
         inkscape:connector-curvature="0"
         d="m 461.4,477.4 c -1.8,0 -3.4,0.7 -4.6,2 -1.2,1.3 -1.8,2.8 -1.8,4.6 l 0,34.5 c 0,1.8 0.6,3.3 1.8,4.6 1.2,1.3 2.8,2 4.6,2 1.8,0 3.4,-0.7 4.7,-2 1.3,-1.3 2,-2.9 2,-4.6 l 0,-34.5 c 0,-1.8 -0.7,-3.3 -2,-4.6 -1.3,-1.3 -2.9,-2 -4.7,-2 z"
         id="path159" />
    </g>
  </g>
</svg>
