<?xml version="1.0" encoding="UTF-8" standalone="no"?>
<!-- Created with Inkscape (http://www.inkscape.org/) -->

<svg
   xmlns:dc="http://purl.org/dc/elements/1.1/"
   xmlns:cc="http://creativecommons.org/ns#"
   xmlns:rdf="http://www.w3.org/1999/02/22-rdf-syntax-ns#"
   xmlns:svg="http://www.w3.org/2000/svg"
   xmlns="http://www.w3.org/2000/svg"
   xmlns:sodipodi="http://sodipodi.sourceforge.net/DTD/sodipodi-0.dtd"
   xmlns:inkscape="http://www.inkscape.org/namespaces/inkscape"
   id="svg2"
   version="1.1"
   inkscape:version="0.91 r13725"
   xml:space="preserve"
   width="460"
   height="460"
   viewBox="0 0 460 460"
   sodipodi:docname="logo-mark.svg"
   inkscape:export-filename="/home/ionicabizau/Documents/bloggify-projects/preview-app/public/images/logo.png"
   inkscape:export-xdpi="3.9100001"
   inkscape:export-ydpi="3.9100001"><metadata
     id="metadata8"><rdf:RDF><cc:Work
         rdf:about=""><dc:format>image/svg+xml</dc:format><dc:type
           rdf:resource="http://purl.org/dc/dcmitype/StillImage" /><dc:title /></cc:Work></rdf:RDF></metadata><defs
     id="defs6"><clipPath
       clipPathUnits="userSpaceOnUse"
       id="clipPath16"><path
         d="M 0,792 612,792 612,0 0,0 0,792 Z"
         id="path18"
         inkscape:connector-curvature="0" /></clipPath></defs><sodipodi:namedview
     pagecolor="#ffffff"
     bordercolor="#666666"
     borderopacity="1"
     objecttolerance="10"
     gridtolerance="10"
     guidetolerance="10"
     inkscape:pageopacity="0"
     inkscape:pageshadow="2"
     inkscape:window-width="1920"
     inkscape:window-height="1060"
     id="namedview4"
     showgrid="false"
     inkscape:zoom="1.3485026"
     inkscape:cx="-129.64608"
     inkscape:cy="231.42241"
     inkscape:window-x="0"
     inkscape:window-y="0"
     inkscape:window-maximized="1"
     inkscape:current-layer="g10" /><g
     id="g10"
     inkscape:groupmode="layer"
     inkscape:label="Bloggify icon_only"
     transform="matrix(1.25,0,0,-1.25,0,460)"><path
       style="opacity:1;fill:#000000;fill-rule:evenodd;stroke:none;stroke-width:0.74695039px;stroke-linecap:butt;stroke-linejoin:miter;stroke-opacity:1"
       d="M 184,362.60313 C 85.053704,362.60313 5.3968744,282.9463 5.3968744,184 5.3968744,85.053704 85.053704,5.3968715 184,5.3968715 282.9463,5.3968715 362.60313,85.053704 362.60313,184 362.60313,282.9463 282.9463,362.60313 184,362.60313 Z M 133.71876,235.78282 c 21.98476,0 40.89636,-13.09892 49.4,-31.90938 8.50394,18.81148 27.42104,31.90938 49.4078,31.90938 0.29076,0 0.5733,-0.0382 0.86407,-0.0422 l 86.57656,0 -35.3875,-25.63594 3.90782,0.0109 20.44843,0 -22.65938,-21.86094 c 0.27178,-2.19312 0.45313,-4.4109 0.45313,-6.67813 0,-16.3275 -7.22952,-30.95737 -18.65,-40.89531 l 0.005,-0.008 0.003,0 0.003,0 -0.3,-0.2375 c -1.18049,-1.01296 -2.40683,-1.97115 -3.67187,-2.88125 l -31.5922,-24.8 0,10.16094 -49.40624,-34.525007 -49.40313,34.521877 0,-10.15781 -31.58906,24.79844 c -1.26818,0.9122 -2.498066,1.87355 -3.681258,2.88906 l -0.295312,0.23125 0.0094,0.008 c -11.420672,9.93791 -18.649999,24.56833 -18.649999,40.89531 0,2.79251 0.211473,5.53527 0.618751,8.21407 l -21.064063,20.32344 20.445312,0 3.909375,-0.0109 -35.387499,25.63438 83.951563,0 c 0.57709,0.0182 1.15287,0.0437 1.73438,0.0437 l 0,0.002 z M 232.525,200.69375 c -10.55699,0 -19.11718,-8.55831 -19.11718,-19.11719 0,-10.55889 8.56018,-19.11718 19.11718,-19.11718 10.55889,0 19.11719,8.55829 19.11719,19.11718 0,10.55888 -8.55831,19.11719 -19.11719,19.11719 z m -98.80624,-0.27812 c -10.40496,0 -18.84063,-8.43412 -18.84063,-18.83907 0,-10.40496 8.43567,-18.83905 18.84063,-18.83905 10.40495,-10e-6 18.83906,8.43409 18.83906,18.83905 0,10.40495 -8.43413,18.83907 -18.83906,18.83907 z m 49.40156,-30.15156 c -2.86588,-9.08985 -9.67585,-16.41388 -18.45782,-19.92969 l 17.05313,-35.42188 0,23.41875 c -2.02398,0.68606 -3.48907,2.57732 -3.48907,4.83125 0,2.74995 2.1742,4.97525 4.89376,5.09688 2.71954,-0.12156 4.89218,-2.34693 4.89218,-5.09688 0,-2.25393 -1.46697,-4.14519 -3.48906,-4.83125 l 0,-23.41875 17.05312,35.42188 c -8.78196,3.51581 -15.59037,10.83984 -18.45624,19.92969 z"
       id="rect3938"
       inkscape:connector-curvature="0"
       inkscape:export-xdpi="3.9100001"
       inkscape:export-ydpi="3.9100001" /></g></svg>